<?xml version="1.0" encoding="UTF-8"?>
<svg id="Lager_1" xmlns="http://www.w3.org/2000/svg" version="1.1" viewBox="0 0 152.97 201.18">
  <!-- Generator: Adobe Illustrator 29.5.1, SVG Export Plug-In . SVG Version: 2.1.0 Build 141)  -->
  <path d="M40.99,28.76c-.02-.27,0-.41.08-.5.09-.11.24-.14.35-.05.09.08.12.22.07.51-.06.32-.13.64-.21.95h-.21c-.03-.32-.05-.62-.07-.92M44.78,29.64c1.15.97,1.16,2.34.47,3.15-.69.81-2,1.07-3.19.05-1.15-.97-1.16-2.35-.47-3.16.69-.81,1.99-1.06,3.19-.05M44.99,32.57c.62-.73.09-1.69-.7-2.36-.79-.67-1.82-1.03-2.44-.3-.62.73-.1,1.69.69,2.36.79.67,1.83,1.02,2.44.29"/>
  <path d="M50.66,26.9c-.19.5-.44.92-.87,1.3-1.03.91-2.4.76-3.32-.28-.91-1.04-.88-2.42.18-3.35.42-.37.81-.58,1.25-.66l.68.73-.32.28-.8-.65.41-.18.26.29c-.5-.01-.88.12-1.2.41-.71.62-.75,1.64.11,2.63.86.98,1.83,1.12,2.63.42.29-.25.44-.51.61-.9l-.03.46-.27-.3c-.35-.4-.7-.79-1.06-1.18l.52-.45c.33.4.67.8,1.03,1.21l.2.23ZM48.58,26.6l-.19-.21,1.36-1.19.19.21-.52.55-.12.1-.72.53Z"/>
  <path d="M50.18,22.27l-.16-.23,1.6-1.09.16.23-.69.59-.12.08-.8.42ZM51.76,23.43c-.4-.58-.8-1.17-1.22-1.75l.57-.39c.38.58.78,1.17,1.19,1.77l.19.28c.4.58.8,1.17,1.22,1.75l-.57.39c-.37-.58-.78-1.17-1.18-1.77l-.19-.28ZM53.26,24.93l.8-.42.16.23-1.6,1.09-.16-.23.69-.59.12-.08Z"/>
  <path d="M54.27,19.57l.45-.05-.78.28-.13-.25.94-.48,4.29,2.18.34.67-.21.11-4.9-2.46ZM54.31,19.31l.44.09,1.96,3.84-.31.16-2.09-4.09ZM55.75,23.41l.6-.42.13-.06.75-.27.13.25-1.47.75-.13-.25ZM56.32,18.28l1.47-.75.13.25-.56.4-.13.07-.78.28-.13-.25ZM56.97,17.95l.31-.16,2.11,4.13-.47-.15-1.95-3.82Z"/>
  <path d="M63.54,15.7l-.07-.27.94-.23.09.37-.07.02-.9.12ZM64.6,17.33c-.17-.69-.34-1.38-.53-2.06l.67-.17c.15.68.32,1.37.49,2.07l.06.25c.19.76.36,1.46.55,2.14l-.67.16c-.14-.68-.32-1.37-.51-2.15l-.06-.25ZM65.44,19.34l.86-.21c1.03-.26,1.42-1.1,1.12-2.31-.31-1.26-1.05-1.79-2.02-1.55l-.91.23-.08-.31,1.03-.25c1.27-.32,2.35.25,2.71,1.7.36,1.44-.43,2.47-1.73,2.79l-.9.22-.08-.31ZM65.42,19.28l.09.37-.94.23-.07-.27.85-.31.07-.02Z"/>
  <path d="M69.96,14.31l-.04-.28,1.92-.24.04.28-.88.22-.14.02h-.9ZM71.48,18.08h.9s.04.27.04.27l-1.92.24-.04-.28.88-.21.14-.02ZM70.83,16.07c-.09-.7-.18-1.41-.29-2.11l.69-.09c.07.69.15,1.4.24,2.11l.04.33c.09.7.18,1.41.29,2.11l-.69.09c-.07-.69-.15-1.4-.24-2.11l-.04-.33Z"/>
  <path d="M76.77,17.07c0-.44-.27-.63-.87-.85l-.26-.1c-.71-.27-1.2-.65-1.21-1.36-.02-.79.64-1.29,1.52-1.3.46-.01.83.13,1.13.34l-.03.9h-.42s-.21-1.03-.21-1.03l.45.22v.35c-.34-.32-.59-.43-.96-.43-.53.01-.92.28-.91.79,0,.43.29.67.79.86l.27.1c.91.33,1.27.73,1.28,1.38.02.81-.65,1.32-1.61,1.34-.51.01-1.02-.14-1.35-.34l.03-.96h.42s.2,1.05.2,1.05l-.45-.18v-.33c.43.3.66.43,1.13.42.64-.01,1.06-.32,1.05-.85"/>
  <path d="M79.86,13.98l.36-.31-.35,1.2-.39-.04.18-1.21,3.75.4-.08,1.22-.39-.04-.09-1.24.28.38-3.27-.35ZM81.15,18.01l.95.21-.03.28-2.07-.22.03-.28h.97l.15.02ZM80.98,15.89c.08-.7.15-1.41.21-2.12l.69.07c-.09.69-.17,1.4-.25,2.11l-.04.33c-.08.71-.15,1.42-.21,2.12l-.69-.07c.09-.69.17-1.4.25-2.11l.04-.34Z"/>
  <path d="M85.88,18.8l.86.3-.06.27-1.89-.43.06-.27.9.1.14.03ZM85.95,16.68c.16-.69.31-1.39.45-2.08l.67.15c-.17.67-.33,1.37-.49,2.07l-.08.33c-.15.69-.31,1.39-.45,2.08l-.67-.15c.17-.67.33-1.37.49-2.07l.07-.33ZM85.73,14.74l.06-.27,1.89.43-.06.27-.9-.1-.14-.03-.85-.3Z"/>
  <path d="M89.65,19.84l-.13.36-.91-.32.09-.26.88.2.07.02ZM90.72,15.76l.65.23c-.25.66-.49,1.33-.72,2l-.16.45c-.19.55-.43,1.23-.64,1.89l-.65-.23c.25-.66.49-1.33.72-1.99l.11-.33c.24-.68.47-1.35.69-2.01M92.33,19.82l-.49,1.2-2.31-.81.11-.32,2.09.73-.48.2.69-1.13.4.14ZM90.04,15.81l.09-.26,1.83.64-.09.26-.88-.2-.13-.05-.81-.39Z"/>
  <path d="M94.66,21.87l-.17.34-.86-.44.12-.25.85.31.06.03ZM96.25,17.96l.62.31c-.34.62-.66,1.26-.98,1.89l-.21.42c-.26.52-.59,1.16-.88,1.79l-.61-.31c.34-.62.66-1.26.98-1.88l.16-.31c.32-.64.65-1.28.94-1.91M97.32,22.2l-.65,1.12-2.18-1.11.16-.31,1.97,1-.5.13.83-1.03.38.19ZM95.57,17.93l.13-.25,1.73.88-.13.25-.85-.31-.13-.07-.75-.5Z"/>
  <path d="M99.36,24.53l-.22.31-.8-.55.16-.23.8.42.06.04ZM100.27,22.63c.4-.58.8-1.17,1.18-1.77l.57.39c-.41.56-.81,1.15-1.22,1.74l-.14.21c-.44.65-.85,1.24-1.23,1.83l-.57-.39c.41-.56.81-1.15,1.22-1.75l.19-.28ZM102,25.33l-.73.98-2.13-1.46.19-.28,1.94,1.32-.46.1.87-.89.32.22ZM101.65,23.92l-1.28-.88.18-.26,1.28.87-.18.27ZM100.78,20.74l.16-.23.8.55-.22.32-.06-.04-.68-.59ZM101.62,23.59l.49-.54.26.18-.91,1.33-.26-.18.34-.69.08-.11ZM103.29,22.12l.07.47-1.82-1.25.2-.29,2.02,1.38-.65,1.04-.33-.22.51-1.13Z"/>
  <path d="M103.85,27.93l.6.68-.19.21-1.44-1.3.19-.21.74.53.11.09ZM104.96,26.12c.47-.53.95-1.05,1.41-1.59l.51.46c-.49.52-.95,1.02-1.49,1.62l-.14.15c-.52.57-1,1.1-1.46,1.64l-.51-.46c.48-.5.96-1.03,1.44-1.57l.23-.25ZM105.18,26.36l.63.57c.55.5,1.07.43,1.44.03.39-.43.37-.87-.16-1.34l-.69-.62.21-.24.71.64c.78.71.94,1.45.43,2.01-.39.43-1.08.52-1.81-.04l.05-.03c.36.39.43.76.14,1.35l-.52,1.06-.08-.26.48.55-.19.21c-.13-.06-.27-.15-.43-.29-.32-.29-.39-.5-.23-.8l.54-1c.27-.5.15-.74-.26-1.12l-.49-.44.21-.23ZM105.72,24.31l.19-.21.72.65-.26.28-.05-.05-.6-.68Z"/>
  <path d="M108.39,32.54l.55.8-.21.18-1.34-1.58.21-.18.7.67.09.11ZM109.42,31.15l.42.49c-.61.52-1.11.94-1.56,1.35l-.45-.53c.47-.37.97-.8,1.59-1.32M109.09,31.57l1.36-3.12.48.57-1.25,2.68-.15-.18,2.87-.77.23.27-3.28.85-.26-.3ZM110,28.35l.21-.18,1.25,1.48-.21.18-.65-.61-.09-.11-.5-.75ZM112.09,30.98l-.41-.64.21-.18,1.01,1.2-.21.18-.52-.45-.09-.1Z"/>
  <path d="M76.34,96.7c-20.52,0-37.22-16.7-37.22-37.22s16.7-37.22,37.22-37.22,37.22,16.7,37.22,37.22-16.7,37.22-37.22,37.22M76.34,22.71c-20.28,0-36.78,16.5-36.78,36.78s16.5,36.78,36.78,36.78,36.78-16.5,36.78-36.78-16.5-36.78-36.78-36.78"/>
  <path d="M76.34,110.26c-28,0-50.78-22.78-50.78-50.78S48.34,8.71,76.34,8.71s50.78,22.78,50.78,50.78-22.78,50.78-50.78,50.78M76.34,9.15c-27.75,0-50.34,22.58-50.34,50.34s22.58,50.34,50.34,50.34,50.34-22.58,50.34-50.34S104.1,9.15,76.34,9.15"/>
  <path d="M39.96,35.63c0,.32-.26.59-.59.59s-.59-.27-.59-.59.26-.59.59-.59.59.27.59.59"/>
  <path d="M113.82,35.69c0,.32-.26.59-.59.59s-.59-.27-.59-.59.26-.59.59-.59.59.27.59.59"/>
  <path d="M92.78,59.41c.06,9.09-7.15,16.64-16.37,16.69-9.19.05-16.6-7.42-16.6-16.47s7.43-16.66,16.43-16.67c9.38,0,16.59,7.75,16.54,16.44M73.91,44.02c-1.8.01-3.36.38-4.78,1.23-2.31,1.37-3.75,3.43-4.58,5.94-.91,2.74-.98,5.55-.48,8.38.45,2.58,1.36,5,2.71,7.24,2.01,3.32,4.6,6.02,8.28,7.5,1.95.78,3.97.99,6.02.49,2.85-.7,4.86-2.49,6.19-5.04,1.56-2.99,1.82-6.21,1.39-9.5-.36-2.79-1.31-5.4-2.73-7.83-1.42-2.42-3.2-4.51-5.52-6.12-2-1.39-4.19-2.24-6.5-2.29"/>
  <path d="M85.34,34.47c-3.01.83-5.97,1.64-8.92,2.46-2.89.79-5.77,1.59-8.66,2.39-.17.05-.33.12-.4-.09-.07-.2.14-.21.24-.27,2.89-1.6,5.78-3.2,8.67-4.81,2.18-1.21,4.37-2.42,6.54-3.65.27-.15.4-.18.57.16.62,1.26,1.28,2.51,1.96,3.8"/>
  <path d="M35.26,40.18l-.51.84-.25-.12.89-1.89.25.12-.32.93-.06.13ZM37.35,40.74c.65.31,1.31.62,1.97.9l-.29.61c-.63-.32-1.28-.63-1.95-.94l-.32-.15c-.65-.3-1.31-.61-1.97-.9l.29-.6c.63.32,1.28.63,1.95.94l.32.15ZM39.56,40.29l.18.43-1.03-.73.17-.35,1.1.58-1.62,3.45-1.15-.48.16-.35,1.22.32-.45.14,1.42-3Z"/>
  <path d="M32.48,47.78l-.36.84-.27-.08.56-1.87.27.08-.16.9-.04.13ZM34.62,48.02c.69.21,1.38.42,2.07.6l-.19.64c-.67-.22-1.36-.43-2.06-.64l-.33-.1c-.69-.21-1.38-.41-2.08-.6l.19-.64c.67.23,1.36.43,2.19.68l.2.06ZM33.32,44.98l-.36.84-.27-.08.56-1.87.27.08-.16.9-.04.13ZM35.46,45.22c.69.21,1.38.42,2.08.6l-.19.64c-.67-.22-1.36-.43-2.06-.64l-.2-.06c-.82-.25-1.51-.46-2.21-.64l.19-.64c.67.22,1.36.43,2.06.64l.33.1ZM35.11,45.44l.31.09-.84,2.8-.3-.09.84-2.8ZM36.61,47.93l.27.08-.56,1.87-.27-.08.16-.9.04-.13.36-.84ZM37.46,45.13l.27.08-.56,1.87-.27-.08.16-.9.04-.13.36-.84Z"/>
  <path d="M32.05,54.74l-1.22-.23.39-2.61.35.05-.35,2.36-.3-.36,1.2.4-.06.39ZM33.75,51.97c.71.1,1.43.21,2.14.29l-.1.66c-.7-.12-1.41-.23-2.14-.34l-.26-.04c-.79-.12-1.51-.23-2.23-.31l.1-.66c.7.12,1.41.23,2.14.34l.35.05ZM31.59,51.96l-.38-.06.14-.97.28.04-.03.91v.07ZM33.47,53.61l.72.21-.05.31-1.64-.24.05-.31h.78s.14.03.14.03ZM33.19,53.8l.23-1.56.32.05-.23,1.56-.32-.05ZM35.56,54.51l-.39.26.33-2.23.35.05-.37,2.47-1.24-.13.06-.39,1.26-.03ZM35.71,51.59l.28.04-.14.96-.38-.06v-.07s.25-.88.25-.88Z"/>
  <path d="M31.01,61.16l-.06.91-.28.02-.1-1.95.28-.02.15.9v.14ZM33.12,60.66c.72-.04,1.44-.07,2.16-.13l.04.67c-.71.02-1.43.05-2.16.09l-.42.02c-.71.04-1.37.07-2.09.13l-.04-.67c.71-.02,1.43-.05,2.16-.09l.35-.02ZM32.51,61.7l-.04-.69.32-.02.04.79c.05.86.52,1.17,1.18,1.13.67-.04,1.05-.43,1-1.28l-.04-.77.32-.02.05.9c.06,1.16-.48,1.78-1.3,1.82-.78.04-1.46-.46-1.54-1.89M34.97,59.9h.28s.05.96.05.96l-.38.02v-.07s.05-.91.05-.91Z"/>
  <path d="M31.81,68.12c.15.79.67,1.1,1.9.87l2.54-.48.06.34-2.72.52c-1.44.27-2.11-.32-2.28-1.25-.19-.99.24-1.77,1.51-2.01l.74-.14c.71-.13,1.42-.27,2.12-.42l.13.66c-.7.11-1.41.25-2.13.38l-.54.1c-1.18.23-1.46.74-1.33,1.44M35.31,65.03l.28-.05.36,1.92-.27.05-.27-.87-.03-.14-.07-.91ZM35.89,68.62l-.04-.77.27-.05.31,1.64-.27.05-.25-.74-.03-.14Z"/>
  <path d="M33.12,73.33l.19.89-.26.09-.62-1.85.26-.09.39.83.04.13ZM35.02,72.29c.68-.23,1.37-.46,2.04-.71l.21.63c-.7.21-1.34.43-2.12.7l-.2.07c-.75.25-1.43.48-2.11.73l-.21-.63c.67-.21,1.36-.44,2.06-.67l.33-.11ZM35.09,72.6l.28.83c.24.71.74.93,1.28.75.56-.19.76-.59.53-1.28l-.3-.9.3-.1.3.9c.34,1.01.11,1.75-.62,2-.56.19-1.22-.08-1.58-.93h.06c.11.5,0,.86-.54,1.24l-.99.69.06-.25.15.71-.26.09c-.08-.1-.16-.25-.23-.45-.14-.41-.09-.62.19-.81l.99-.63c.49-.31.5-.59.31-1.13l-.21-.63.3-.1ZM36.59,71.06l.26-.09.31.93-.36.12-.02-.07-.19-.89Z"/>
  <path d="M35.39,79.08l-.35.17-.44-.88.25-.12.5.77.03.06ZM37.16,77.85c.64-.32,1.29-.64,1.93-.98l.3.6c-.64.29-1.29.62-1.95.94l-.24.12c-.72.36-1.37.68-2,1.02l-.3-.6c.64-.3,1.29-.62,1.95-.95l.31-.15ZM37.36,81.1l-1.14.51-1.17-2.36.31-.16,1.06,2.14-.45-.12,1.21-.36.18.35ZM37.75,79.67l-.7-1.41.29-.14.7,1.41-.29.14ZM37.87,79.36l.71-.24.14.28-1.48.74-.14-.28.65-.44.12-.06ZM38.55,76.42l.25-.12.44.88-.34.17-.03-.06-.31-.86ZM40.1,78.9l-.17.44-1-2.01.31-.15,1.11,2.23-1.09.6-.18-.35,1.01-.75Z"/>
  <path d="M41.56,87.6c.36-.28.35-.62.17-1.24l-.08-.27c-.21-.73-.19-1.37.37-1.8.64-.49,1.44-.25,1.98.45.29.37.39.75.4,1.13l-.74.52-.26-.33.72-.8.09.49-.28.21c.06-.48,0-.75-.23-1.05-.33-.43-.8-.59-1.21-.27-.35.27-.38.65-.22,1.17l.08.28c.28.95.18,1.48-.34,1.88-.65.5-1.47.26-2.06-.5-.32-.42-.5-.92-.53-1.3l.8-.56.26.33-.74.8-.12-.48.26-.21c.02.54.05.81.34,1.18.41.53.92.69,1.35.36"/>
  <path d="M43.53,90.93l.56.72-.2.2-1.37-1.39.2-.2.71.57.1.1ZM44.78,89.16c.51-.5,1.03-1.01,1.53-1.53l.47.48c-.52.48-1.03.99-1.56,1.5l-.3.3c-.51.5-.97.96-1.47,1.48l-.47-.48c.52-.48,1.04-.99,1.56-1.5l.25-.24ZM45.01,90.34l-.48-.49.23-.23.56.57c.6.61,1.16.53,1.63.07.48-.47.5-1.01-.09-1.62l-.54-.55.23-.23.63.64c.81.83.82,1.65.24,2.22-.56.55-1.4.63-2.4-.39M45.66,87.37l.2-.2.69.7-.27.27-.05-.05-.56-.72Z"/>
  <path d="M47.71,94.79l.64.66-.18.22-1.51-1.24.18-.21.77.49.11.09ZM48.76,92.9c.46-.56.92-1.12,1.36-1.69l.52.43c-.46.53-.92,1.09-1.39,1.66l-.22.27c-.46.56-.92,1.12-1.36,1.69l-.52-.42c.46-.54.92-1.1,1.39-1.66l.22-.27ZM49.44,91.02l.18-.22,1.51,1.24-.18.22-.77-.5-.11-.09-.64-.66Z"/>
  <path d="M51.16,97.36l.7.58-.15.24-1.64-1.06.15-.24.82.41.12.07ZM51.99,95.37c.39-.6.78-1.21,1.15-1.82l.56.36c-.41.6-.78,1.17-1.23,1.87l-.11.18c-.43.66-.82,1.27-1.19,1.89l-.56-.37c.4-.58.79-1.19,1.19-1.8l.19-.29ZM52.23,95.57l.73.47c.63.41,1.16.26,1.46-.21.32-.49.23-.93-.38-1.33l-.8-.51.18-.27.8.52c.9.58,1.18,1.3.76,1.95-.32.49-1,.7-1.81.26l.05-.04c.39.31.53.67.35,1.3l-.34,1.16-.11-.23.56.46-.15.24c-.13-.03-.28-.1-.46-.21-.36-.23-.46-.43-.36-.75l.38-1.11c.19-.55.03-.77-.46-1.09l-.56-.36.17-.26ZM52.45,93.43l.15-.23.82.53-.21.32-.06-.04-.71-.58Z"/>
  <path d="M56.53,100.47l.77.5-.12.25-1.75-.86.12-.25.86.31.12.06ZM57.13,98.4c.32-.64.64-1.29.94-1.95l.6.3c-.33.62-.65,1.27-.98,1.93l-.15.31c-.32.64-.64,1.29-.94,1.95l-.6-.3c.33-.62.65-1.27.97-1.93l.15-.31ZM57.37,96.42l.12-.25,1.75.87-.12.25-.86-.31-.12-.06-.77-.49Z"/>
  <path d="M61.18,102.45l.88.43-.1.26-1.97-.72.1-.26.95.24.13.05ZM60.9,98.15l.41-.22-.63,1.09-.37-.13.48-1.15,3.59,1.3-.37,1.19-.37-.13.22-1.24.18.43-3.12-1.13ZM61.55,100.32c.25-.67.49-1.36.72-2.04l.63.23c-.26.66-.5,1.34-.76,2.03l-.12.33c-.25.67-.49,1.36-.72,2.04l-.63-.23c.26-.65.51-1.34.76-2.03l.12-.33Z"/>
  <path d="M72.62,103.05c-.22,1.51-1.38,2.28-2.45,2.12-1.07-.15-1.99-1.14-1.77-2.72.22-1.52,1.4-2.27,2.46-2.12,1.07.15,1.99,1.14,1.77,2.72M70.22,104.83c.97.14,1.53-.84,1.68-1.88.15-1.04-.12-2.13-1.09-2.27-.97-.13-1.54.84-1.68,1.88-.15,1.04.12,2.13,1.1,2.27"/>
  <path d="M75.6,105.12l.91.11v.28l-1.95-.02v-.28l.91-.1h.14ZM74.58,101.11v-.28h.98s0,.39,0,.39h-.07l-.91-.11ZM75.23,102.99c0-.72.01-1.44,0-2.16h.67c-.03.71-.03,1.44-.04,2.17v.27c0,.8-.01,1.53,0,2.25h-.67c.03-.71.03-1.43.04-2.17v-.35ZM77.17,103.29h-1.63s0-.33,0-.33h1.63s0,.33,0,.33ZM77.49,100.85l.31.35h-2.25s0-.36,0-.36l2.49.02.04,1.24h-.39l-.21-1.25ZM76.95,103.04l.11-.74h.31v1.72h-.32l-.1-.78v-.21Z"/>
  <path d="M85.71,103.5c-.08-.45-.39-.6-1.03-.72l-.28-.06c-.75-.15-1.3-.46-1.43-1.16-.14-.79.43-1.39,1.31-1.55.46-.09.85,0,1.19.16l.12.9-.41.07-.38-1,.48.14.06.35c-.4-.27-.67-.34-1.04-.27-.54.1-.9.44-.8.95.08.44.41.64.94.74l.29.06c.97.19,1.4.52,1.51,1.16.15.81-.44,1.43-1.38,1.6-.52.09-1.05.02-1.4-.12l-.13-.97.41-.08.37,1.03-.48-.11-.06-.33c.48.23.74.33,1.21.24.65-.12,1.03-.5.93-1.04"/>
  <path d="M87.89,99.74l-.89.2-.09-.26,1.78-.61.09.27-.76.37-.13.04ZM90.04,98.61l.21-.07,2.46,3.3-.16.06-.24-4.06.33-.11.32,4.88-.26.09-2.56-3.34.21-.07.1,4.18-.26.09-2.82-4.03.61-.21,2.27,3.36-.19.06-.03-4.13ZM90.22,98.95l-.88.19-.09-.26,1.78-.61.09.26-.77.38-.13.04ZM92.41,98.2l-.73.14-.09-.26,1.51-.52.09.26-.64.33-.13.05Z"/>
  <path d="M94.59,97.11l-.13-.25.86-.46.18.34-.06.03-.85.33ZM96.05,98.46c-.34-.63-.68-1.27-1.03-1.9l.59-.31c.31.63.65,1.27.99,1.92l.12.24c.38.71.72,1.35,1.07,1.97l-.59.31c-.31-.63-.65-1.27-.99-1.92l-.16-.31ZM97.02,95.5l.44.16-1.98,1.05-.16-.31,2.2-1.17.62,1.07-.34.18-.77-.99ZM97.86,97.83l-1.4.74-.15-.28,1.39-.74.15.28ZM97.33,100.19l.18.34-.86.46-.13-.25.75-.52.06-.03ZM97.54,97.71l-.25-.7.28-.15.78,1.46-.28.15-.45-.63-.07-.12ZM99.29,98.18l.54,1.12-2.32,1.23-.16-.31,2.1-1.12-.11.46-.39-1.2.35-.18Z"/>
  <path d="M99.32,94.48l-.16-.23.79-.58.23.31-.06.04-.8.45ZM100.96,95.61c-.42-.58-.85-1.17-1.29-1.74l.54-.39c.4.58.82,1.17,1.26,1.77l.15.21c.47.65.9,1.24,1.34,1.81l-.54.39c-.4-.58-.82-1.17-1.3-1.83l-.16-.22ZM102.51,97.2l.73-.53c.89-.65.94-1.6.19-2.62-.78-1.07-1.68-1.29-2.51-.68l-.78.57-.19-.26.88-.64c1.07-.78,2.3-.65,3.2.58.89,1.22.54,2.49-.56,3.29l-.76.55-.19-.26ZM102.47,97.15l.23.31-.79.58-.17-.23.67-.62.06-.04Z"/>
  <path d="M104.05,90.84l-.19-.21,1.44-1.32.19.21-.6.69-.1.09-.74.54ZM105.81,91.78c-.49-.53-.98-1.06-1.48-1.58l.49-.46c.46.53.95,1.07,1.45,1.61l.24.26c.48.53.98,1.07,1.48,1.58l-.49.45c-.46-.53-.95-1.07-1.45-1.61l-.24-.26ZM107.54,93.09l.74-.54.19.21-1.44,1.32-.19-.21.6-.69.1-.09Z"/>
  <path d="M110.89,88.58c-.34-.3-.67-.23-1.25.07l-.25.13c-.68.35-1.3.45-1.84-.02-.6-.53-.52-1.36.07-2.02.31-.35.66-.53,1.03-.61l.65.63-.28.31-.92-.55.47-.18.26.23c-.48.03-.74.15-.98.43-.36.41-.43.89-.04,1.24.33.29.71.25,1.2,0l.26-.13c.88-.46,1.41-.46,1.91-.02.61.55.54,1.4-.1,2.11-.35.39-.81.66-1.17.77l-.7-.68.28-.31.92.57-.45.21-.25-.22c.52-.12.78-.2,1.1-.56.44-.49.5-1.03.09-1.39"/>
  <path d="M109.9,84.63l-.23-.16,1.09-1.62.23.15-.42.81-.08.12-.59.7ZM111.84,85.13c-.6-.4-1.2-.8-1.81-1.19l.37-.56c.57.41,1.18.82,1.79,1.23l.17.12c.71.48,1.32.88,1.93,1.27l-.37.56c-.58-.41-1.18-.82-1.79-1.23l-.29-.2ZM111.54,82.2l-.23-.15,1.09-1.62.23.15-.42.81-.08.11-.59.7ZM113.47,82.7c-.6-.4-1.2-.81-1.81-1.19l.38-.56c.57.41,1.18.82,1.79,1.23l.29.2c.6.4,1.2.8,1.81,1.19l-.37.56c-.58-.41-1.18-.82-1.9-1.3l-.18-.12ZM112.24,85.03l-.26-.18,1.63-2.43.27.18-1.64,2.44ZM113.82,86l.59-.7.23.15-1.09,1.62-.23-.16.42-.81.08-.12ZM115.46,83.57l.59-.69.23.15-1.09,1.62-.23-.15.42-.81.08-.12Z"/>
  <path d="M114.77,76.34l-.26-.1.71-1.82.26.1-.23.88-.05.13-.43.81ZM114.74,75.64l.24-.62c.66.28,1.34.55,2,.81l.45.18c.55.22,1.23.48,1.89.72l-.25.62c-.66-.28-1.33-.55-2-.81l-.32-.13c-.68-.27-1.36-.53-2.02-.77M118.85,76.89l.36.14-.36.91-.26-.1.23-.88.03-.06ZM118.92,74.17l1.2.54-.91,2.32-.32-.13.82-2.09.19.48-1.12-.74.15-.39Z"/>
  <path d="M116.74,69.5l.1-.41,4.96-.44-.15.63-4.4.37.04-.15,3.72,2.38-.08.32-4.19-2.69ZM119.32,70.97l.45-1.83.34-.03-.5,2.05-.28-.19ZM120.55,72.57l.06-.7.03-.14.28-.72.27.07-.38,1.56-.27-.07ZM121.18,70.01l.11-.88.04-.13.31-.82.27.07-.45,1.83-.27-.07Z"/>
  <path d="M117.85,65.68l-.28-.03.1-.97.38.04v.07s-.21.89-.21.89ZM119.8,65.22c-.72-.08-1.44-.15-2.15-.21l.07-.66c.7.09,1.42.18,2.15.25l.42.05c.71.08,1.36.15,2.08.2l-.07.67c-.7-.1-1.42-.18-2.15-.25l-.35-.04ZM120.56,64.3l-.07.69-.32-.03.08-.79c.09-.85-.32-1.23-.98-1.31-.67-.07-1.1.26-1.19,1.1l-.08.76-.32-.03.1-.89c.12-1.15.76-1.68,1.57-1.59.78.08,1.37.69,1.22,2.1M121.96,65.07l.2-.89.28.03-.21,1.94-.28-.03v-.92s0-.14,0-.14Z"/>
  <path d="M118.3,60.47h-.28s-.04-1.95-.04-1.95h.28s.12.9.12.9v.14s-.08.91-.08.91ZM118,59.84v-.67c.71,0,1.44,0,2.15-.02h.49c.59-.02,1.32-.04,2.02-.07l.02.67c-.72,0-1.45,0-2.17.02h-.35c-.73.02-1.46.04-2.17.07M121.31,56.87l1.32.04.05,2.49h-.35s-.04-2.24-.04-2.24l.36.38-1.32-.25v-.42ZM122.29,59.42h.39s.02.97.02.97h-.28s-.12-.9-.12-.9v-.07Z"/>
  <path d="M117.5,53.36l-.06-.41,4.41-2.31.1.64-3.91,2.03-.03-.16,4.35.76.05.32-4.9-.87ZM120.45,53.72l-.29-1.86.3-.16.33,2.08-.33-.06ZM121.79,52.12l-.24-.85-.02-.14-.03-.87.28-.05.29,1.86-.28.04ZM122.2,54.73l-.21-.67-.02-.14-.02-.77.28-.04.25,1.59-.28.04Z"/>
  <path d="M115.99,46.75l-.49-1.6.27-.08.3.64.04.13.14.83-.27.08ZM115.78,46.05l-.1-.33,4.52-1.38-.23.44-4.19,1.28ZM116.92,49.04l.04-.46.14.83-.27.08-.3-1,2.97-3.94.71-.22.07.21-3.35,4.49ZM116.67,48.96l.17-.42,4.2-1.28.1.33-4.48,1.37ZM121.05,48.24l-.31-.67-.04-.13-.13-.79.27-.08.49,1.6-.27.08Z"/>
  <path d="M118.42,40.88l-.39-.81c-.47-.99-1.4-1.21-2.54-.67-1.19.57-1.57,1.41-1.12,2.34l.41.87-.29.14-.46-.98c-.57-1.2-.22-2.38,1.15-3.03,1.36-.65,2.55-.07,3.13,1.15l.4.85-.29.14ZM116.58,42.1c-.65.31-1.3.62-1.94.95l-.29-.6c.64-.28,1.3-.59,1.96-.91l.24-.11c.72-.35,1.38-.65,2.02-.98l.29.6c-.65.28-1.3.6-2.04.95l-.24.11ZM115.16,43.51l-.25.12-.42-.88.35-.16.03.06.3.86ZM118.36,40.91l.35-.16.42.88-.25.12-.48-.77-.03-.06Z"/>
  <path d="M15.39,172.2c-.12-.06-.24-.1-.36-.14.18.29.36.58.54.86,1.24-1.14,2.83-1.89,4.37-2.53,1.74-.73,3.51-1.39,5.31-1.97,3.03-.97,6.22-1.65,9.39-1.6,1.11.02,2.37.13,3.32.77,1.08.73,1.28,2.06,1.03,3.26-.3,1.46-1.16,2.78-2.05,3.95-.88,1.17-1.88,2.25-2.84,3.34-2.51,2.87-5.21,5.59-8.09,8.09-2.79,2.42-5.71,4.73-9.15,6.16-.84.35-2.97,1.06-2.85-.56.08-.99.77-1.95,1.34-2.73,1.7-2.32,3.88-4.31,6.17-6.03,2.97-2.24,6.21-4.18,9.57-5.79,3.5-1.68,7.18-3,11.01-3.7.97-.18,1.95-.28,2.94-.2-.15-.15-.29-.3-.44-.44-.04.06-.1.09-.17.1-.38.12.22.61.5.52.18-.06.28-.1.37-.27.11-.23-.26-.43-.44-.44-2-.15-4.03.43-5.94.99-1.97.58-3.91,1.28-5.79,2.1-3.62,1.56-7.09,3.52-10.34,5.75-2.74,1.88-5.31,4.05-7.39,6.66-.82,1.03-3.15,3.99-.89,4.79.66.23,1.4.05,2.04-.16.79-.27,1.57-.63,2.31-1,1.77-.89,3.37-2.06,4.93-3.29,3.23-2.55,6.22-5.38,9.01-8.4,1.16-1.26,2.3-2.55,3.41-3.85,1.02-1.2,2.01-2.46,2.67-3.9.55-1.19.9-2.66.34-3.92-.46-1.01-1.47-1.59-2.51-1.87-1.17-.31-2.41-.33-3.6-.26-1.64.09-3.29.22-4.9.55-2.05.42-4.07.98-6.05,1.64-1.82.61-3.68,1.33-5.43,2.1-.81.36-1.59.79-2.27,1.35-.4.33.29.77.54.86,0,0,0,.01,0,.02.23.12.69.2.83-.09.15-.29-.23-.6-.44-.71"/>
  <path d="M45.1,173c-.5-.14-1.03.49-1.27.86-.32.49-.19,1.04.41,1.22.45.13.92-.12,1.23-.45.24-.26.52-.71.19-1.01-.02-.02-.11-.04-.08.02.22.36-.18.7-.47.86-.16.09-.35.18-.53.21-.06,0-.18.02-.22-.01.07.05.01-.02.02-.08.06-.38.36-.68.61-.94.15-.16.55-.55.11-.67"/>
  <path d="M45.82,173.9c.49.07.98-.09,1.45-.2.25-.06,1.39-.41,1.33.07-.04.36-.54.94.18.96.53.01.98-.39,1.44-.58.15-.06.32-.15.49-.12.15.03.29.16.43.24.2.11.42.2.65.26,1.15.32,2.25.21,3.38-.13,1.34-.4,2.78-1.06,3.76-2.1.06-.07-.09-.15-.15-.11-1.1.83-2.26,1.42-3.59,1.77-.61.16-1.25.29-1.88.35-.65.07-1.33.16-1.94-.14-.34-.17-.57-.45-.98-.36-.59.12-1.09.52-1.67.68-.12.03-.06.05,0-.03.03-.04.05-.09.07-.14.07-.12.15-.23.2-.36.08-.23.03-.43-.17-.58-.38-.29-.98-.23-1.42-.17-.58.09-1.14.28-1.73.34-.3.03.02.33.16.35"/>
  <path d="M73.24,175.22c.77.08,1.56-.55,2.19-.92.77-.44,1.58-.98,2.12-1.7.05-.06-.09-.14-.14-.09-.67.59-1.33,1.12-2.12,1.55-.65.36-1.37.95-2.14.98-.14,0,.01.16.08.17"/>
  <path d="M79.95,169.51c.18-.19.33-.33.57-.41-.13-.16-.27-.32-.41-.48-.36.26-.64.7-.92,1.06-.31.4-.6.81-.9,1.22-.61.84-1.19,1.69-1.75,2.57-.56.87-2.03,3.28-2.19,3.61-.1.22-.16.43,0,.62.04.05.25.16.23,0-.04-.26,2.08-3.49,2.62-4.27.51-.75,1.04-1.48,1.6-2.19.3-.38.61-.74.92-1.11.3-.34.69-.69.91-1.09.15-.28-.47-.66-.56-.31-.06.23-.21.41-.35.59-.08.11.16.28.25.2"/>
  <path d="M79.86,172.41c-.59-.18-1.08.22-1.49.59-.54.49-1.15.98-1.92.98-.08,0-.01.09.04.1.6.06,1.29-.15,1.82-.44.59-.32,1-.77,1.68-.88.23-.04-.03-.33-.13-.36"/>
  <path d="M76.7,174.05c.08.64,1.43.8,1.91.8,1.24,0,2.6-.41,3.62-1.11.08-.05-.09-.15-.15-.12-1.01.44-2.05.75-3.15.84-.57.05-1.43.04-1.85-.41-.06-.07-.41-.19-.38,0"/>
  <path d="M83.92,173.57c-.34-.62-1.25-.25-1.7,0-.33.18-1.31.69-1.01,1.2.32.54,1.1.16,1.55,0,.58-.21,1.14-.45,1.71-.68-.09-.05-.19-.11-.28-.16.04.26,0,.45.27.59.25.13.59.09.86.06.93-.1,1.88-.49,2.63-1.03.08-.05-.09-.14-.14-.12-.42.15-3.33,1.61-3.29.59,0-.11-.16-.19-.25-.17-.35.08-.69.2-1.03.3-.25.08-.51.15-.77.22-.22.06-.49.06-.7.13-.02,0-.1,0-.1,0,.04-.05.23.2.25.21.21.13-.05.08.07.04.02,0,.04-.06.06-.07.17-.13.32-.29.5-.42.2-.13.41-.25.64-.35.1-.04.22-.06.31-.11.12-.06.22.08-.02-.07.17.11.63.14.45-.18"/>
  <path d="M87.57,173.37c-.1.47.58.69.92.76.32.07.5.08.55.46.03.16.04.31.17.43.32.29.92.16,1.3.09.82-.15,1.64-.35,2.46-.51,3.19-.62,6.48-1.15,9.7-.44.11.03.08-.08,0-.1-2.67-.94-5.72-.37-8.44.07-.72.12-1.43.25-2.14.39-.72.14-1.45.38-2.17.46-.09.01-.38.06-.45-.02-.08-.09.03-.35.03-.45,0-.17-.06-.31-.18-.44-.14-.15-.36-.26-.55-.34-.07-.03-.13-.05-.2-.08-.05-.02-.1-.03-.14-.05-.1-.05-.11-.05-.02.01.04-.35-.75-.63-.84-.23"/>
  <path d="M74.42,172.59c-.62-.02-1.05.4-1.16,1-.07.38.04,1.73-.71,1.27-.05-.03-.23-.05-.16.06.35.55.95.34,1.21-.16.15-.28.2-.59.31-.89.17-.43.39-.64.82-.81.33-.13-.14-.48-.32-.48"/>
  <path d="M80.8,182.73c-.05.03-.1.06-.14.1-.33.24.08.71.29.7.77-.03,1.62-.71,2.34-1.15.87-.54,1.74-1.07,2.61-1.63,1.82-1.16,3.64-2.32,5.46-3.48,2.54-1.62,5.04-3.34,7.55-5.04,2.17-1.46,4.35-2.94,6.57-4.22.37-.21.75-.43,1.13-.61.14-.06.27-.12.41-.16.04-.02.09-.03.13-.04.12-.03.17-.08.12.09-.09.37-.46.88-.65,1.23-.28.52-.57,1.03-.86,1.54-1.47,2.61-2.98,5.23-4.25,7.96-.08.17.21.43.31.25,1.35-2.46,2.82-4.83,4.17-7.3.52-.94,1.05-1.88,1.5-2.86.22-.48.46-1.21-.09-1.3-.26-.04-.56.08-.82.21-2.09.97-4.13,2.42-6.12,3.74-2.32,1.54-4.62,3.14-6.94,4.67-2.13,1.39-4.28,2.71-6.42,4.04-1.08.67-2.15,1.34-3.24,1.95-1.01.57-2.09,1.17-3.14,1.39.14.21.28.42.43.63.03-.02.05-.04.07-.07.32-.29-.14-.82-.42-.64"/>
  <path d="M104.38,175.18c.61-.23,1.09-.67,1.51-1.18.4-.47.81-.99,1.15-1.51.03-.05-.08-.11-.12-.08-.42.37-.72.92-1.06,1.36-.43.55-.92,1.05-1.57,1.3-.08.03.04.14.1.11"/>
  <path d="M106.37,172.31c.09.36.54.51.84.61.36.11,1.2.13.86.7-.15.26-1.06.96-.47,1.24.46.21,1.22-.18,1.64-.35.32-.13.64-.27.95-.4.64-.28,1.53-.79,2.24-.75-.07-.07-.15-.14-.22-.22-.27.62-.98,1.02-1.22,1.66-.07.18.25.3.38.22.32-.23.54-.62.76-.94.19-.26.38-.49.44-.8.03-.15-.25-.22-.34-.16-.25.17-.63.22-.92.33-.28.1-.56.21-.83.33-.36.15-.73.3-1.09.44-.26.11-.53.21-.8.3-.16.05-.72.3-.88.2-.24-.17.81-1.07.69-1.46-.06-.21-.29-.35-.47-.46-.14-.09-.29-.18-.44-.26-.07-.04-.16-.1-.24-.13-.08-.04-.14-.17-.08-.02-.12-.29-.93-.55-.81-.07"/>
  <path d="M111.36,175.05c.54-.44,1.11-.84,1.74-1.16.2-.1.5-.28.73-.28.26,0,.23.25.38.4.59.59,1.93.23,2.5-.19.06-.05-.08-.11-.11-.1-.58.2-1.18.41-1.81.32-.48-.07-.43-.65-.94-.67-.38-.02-.77.21-1.09.38-.58.31-1.1.73-1.59,1.17-.08.07.12.2.2.13"/>
  <path d="M118.39,173.44c.1-.28-.17-.46-.43-.46-.33-.01-.66.21-.93.38-.36.22-1.45,1.18-.46,1.31.36.05.78-.18,1.09-.33.18-.09.8-.46.94-.36.12.08.16.25.32.31.37.15.78-.07,1.11-.21.74-.32,1.5-.61,2.2-1.02.08-.05-.05-.13-.11-.11-.9.32-1.75.79-2.66,1.09-.28.09-.38.03-.59-.14-.07-.06-.09-.1-.18-.14-.26-.1-.61.03-.86.11-.33.11-.66.26-1,.35-.05.02-.18.02-.23.05-.12,0-.12.02,0,.08.05.09.09.1.11.04.08-.04.25-.3.33-.37.13-.13.28-.24.43-.34.12-.08.25-.16.39-.23.05-.02.09-.04.14-.06.18-.09.07.03.05-.03.03.09.28.23.33.09"/>
  <path d="M122.55,172.51c.29.24.37.28.24.13-.02-.02-.05-.04-.07-.06-.07-.05-.15-.08-.23-.1-.13-.03-.29-.02-.42.04-.22.1-.31.32-.34.55-.06.44.09,1.04.35,1.39l.07-.14c-.26.03-.5,0-.75-.08-.04-.01-.08.01-.05.05.17.3.64.27.93.28.08,0,.14-.03.12-.11-.05-.29-.06-.6-.01-.88.03-.15.06-.32.15-.45.08-.11.18-.13.29-.2.22-.14-.18-.39-.28-.43"/>
  <path d="M121.71,174.42c1.07-.02,2.15-.43,3.08-.93.07-.04-.05-.11-.09-.09-1.02.38-1.93.89-3.06.92-.09,0,.01.1.07.1"/>
  <path d="M125.03,173.25c-.28.16-.59.47-.7.78-.15.41.23.71.61.69.34-.02,1.57-.67.93-1.03-.03-.02-.08,0-.06.04.23.43-.71.64-.98.67-.02,0-.03-.03,0,.02.02.04,0-.04.01-.06.03-.11.09-.21.14-.3.12-.18.27-.34.42-.49.16-.17-.23-.39-.37-.31"/>
  <path d="M125.77,173.69c.46.91,2.32-.31,2.8-.7.05-.05-.06-.11-.1-.1-.38.08-2.15,1.2-2.4.77-.07-.13-.4-.16-.3.04"/>
  <path d="M128.41,173.01c-.02-.08-.19.18-.24.24-.15.18-.3.36-.44.54-.23.28-.51.57-.67.9-.07.15.18.28.29.29.38.03.62-.2.91-.42.4-.31.89-.6,1.41-.65.54-.05.95.32,1.42.52.45.18.95.25,1.43.28,1.09.07,2.21-.03,3.29-.16,1.09-.13,2.25-.27,3.29-.67.1-.04-.05-.14-.11-.13-1.09.19-2.16.43-3.26.54-1.16.12-2.37.27-3.54.16-.57-.05-1.06-.18-1.56-.45-.3-.16-.6-.3-.94-.3-.39,0-.8.13-1.16.28-.2.09-.4.2-.6.3-.2.11-.46.36-.69.34.1.1.19.19.29.29.2-.41.57-.76.84-1.12.12-.15.54-.56.39-.78-.06-.1-.4-.21-.35,0"/>
  <path d="M46.85,170.18c-.25.15-.47.41-.65.64-.18.23-.4.48-.55.73-.05.09.14.18.21.14.26-.12.48-.35.71-.51.22-.15.49-.41.76-.42.23,0,.25-.23.13-.38-.11-.14-.43-.31-.61-.2"/>
  <path d="M74.81,164.21c-.41.09-.67.42-.97.7-.32.3-.68.59-.95.93-.09.11.13.23.23.19.41-.19.77-.47,1.16-.7.35-.21.85-.34,1.08-.67.16-.24-.38-.48-.55-.45"/>
  <path d="M70.38,168.69c-.93-.79-2.21-.45-3.23-.04-1.46.59-2.81,1.4-4.08,2.32-2.36,1.71-4.64,3.73-6.29,6.15-.86,1.26-2.61,5.05.04,5.49,1.01.17,2.16-.2,3.09-.56,1.25-.47,2.39-1.22,3.47-1.99,1.25-.9,2.42-1.89,3.56-2.92,1.12-1.03,2.23-2.08,3.15-3.3.95-1.25,1.77-2.65,2.23-4.16.32-1.07.46-2.45-.52-3.22-.79-.62-1.92-.63-2.87-.54-1.48.14-2.96.56-4.35,1.09-1.48.57-2.9,1.32-4.23,2.18-1.19.77-2.42,1.71-2.96,3.07-1.31,3.26,3.13,3.89,5.34,3.89,1.64,0,3.26-.28,4.85-.7,1.64-.43,3.31-.94,4.88-1.59.66-.27,1.27-.62,1.83-1.06.08-.06-.11-.18-.18-.12-1.09.83-2.36,1.21-3.65,1.62-1.49.48-3,.95-4.54,1.25-1.49.28-3.01.41-4.52.26-1.22-.12-3.3-.37-3.78-1.75-.48-1.36.7-2.81,1.66-3.63,1.05-.9,2.28-1.62,3.51-2.25,1.22-.63,2.5-1.15,3.82-1.53,1.13-.32,2.35-.61,3.54-.54,3.61.22,1.62,4.52.48,6.31-1.43,2.23-3.47,4.04-5.49,5.73-1.78,1.48-3.73,3.01-5.97,3.71-.77.24-2.56.85-3.01-.15-.41-.92.04-2.18.46-3.02,1.27-2.51,3.46-4.58,5.62-6.33,1.12-.91,2.3-1.77,3.57-2.47.67-.37,1.35-.73,2.07-1,.71-.27,1.66-.58,2.36-.13.08.06.3.02.16-.1"/>
  <g>
    <path d="M21.24,134.15h3.57c.9,0,1.6.3,2.03.82.38.45.6.99.6,1.67,0,1.56-.91,2.51-2.75,2.51h-2.28v3.49h-1.18v-8.49ZM22.42,138.2h2.17c1.15,0,1.7-.58,1.7-1.53s-.6-1.51-1.66-1.51h-2.21v3.04Z"/>
    <path d="M30.15,137.62h.03c.38-.71,1-1.19,1.81-1.19.17,0,.27.02.39.07v1h-.03c-.15-.05-.25-.06-.43-.06-.95,0-1.76.71-1.76,1.86v3.33h-1.06v-6.13h1.05v1.11Z"/>
    <path d="M33.71,139.58c0-1.78,1.15-3.22,3-3.22s2.98,1.44,2.98,3.22-1.13,3.23-2.98,3.23-3-1.44-3-3.23ZM38.61,139.58c0-1.32-.65-2.37-1.91-2.37s-1.91,1.05-1.91,2.37.65,2.36,1.91,2.36,1.91-1.04,1.91-2.36Z"/>
    <path d="M41.11,139.59c0-2.02,1.16-3.23,2.68-3.23.87,0,1.55.43,1.94,1.08h.02c-.02-.27-.03-.72-.03-1.13v-2.17h1.06v8.49h-1.05v-.88h-.02c-.39.66-1.04,1.06-1.89,1.06-1.65,0-2.71-1.26-2.71-3.23ZM45.78,139.6c0-1.38-.65-2.35-1.88-2.35-1.13,0-1.7,1-1.7,2.35s.57,2.34,1.7,2.34c1.31,0,1.88-.99,1.88-2.34Z"/>
    <path d="M52.78,142.64v-.86h-.02c-.43.61-.97.99-1.85.99-1.27,0-2.08-.76-2.08-2.04v-4.22h1.06v4.17c0,.78.49,1.23,1.34,1.23.94,0,1.54-.72,1.54-1.67v-3.73h1.06v6.13h-1.05Z"/>
    <path d="M55.59,139.58c0-1.78,1.15-3.22,2.99-3.22,1.47,0,2.43.83,2.65,2.15h-1.06c-.15-.8-.7-1.29-1.59-1.29-1.26,0-1.91,1.04-1.91,2.36s.65,2.36,1.91,2.36c.96,0,1.53-.56,1.61-1.47h1.05c-.14,1.46-1.11,2.34-2.66,2.34-1.84,0-2.99-1.44-2.99-3.23Z"/>
    <path d="M62.56,136.51h.96v-1.93h1.05v1.93h1.27v.82h-1.27v3.87c0,.45.24.57.63.57.18,0,.42-.05.54-.08h.03v.89c-.29.07-.58.1-.86.1-.82-.01-1.39-.34-1.39-1.24v-4.11h-.96v-.82Z"/>
    <path d="M70.87,139.58c0-1.78,1.15-3.22,3-3.22s2.98,1.44,2.98,3.22-1.13,3.23-2.98,3.23-3-1.44-3-3.23ZM75.76,139.58c0-1.32-.65-2.37-1.91-2.37s-1.91,1.05-1.91,2.37.65,2.36,1.91,2.36,1.91-1.04,1.91-2.36Z"/>
    <path d="M78.22,136.51h.95v-.84c0-.57.15-.97.43-1.22.3-.25.75-.35,1.35-.35.16,0,.35.01.55.02v.88c-1-.07-1.27.09-1.27.72v.8h1.26v.83h-1.26v5.3h-1.06v-5.3h-.95v-.83Z"/>
    <path d="M86.49,139.89h1.15c.14,1.28.98,1.99,2.52,1.99,1.13,0,1.95-.5,1.95-1.53,0-1.11-.98-1.37-2.46-1.7-1.52-.32-2.81-.75-2.81-2.38,0-1.43,1.2-2.27,2.94-2.27,2.09,0,3.02,1.05,3.23,2.5h-1.13c-.15-1.03-.89-1.59-2.09-1.59-1.12,0-1.85.46-1.85,1.3,0,.92.92,1.19,2.2,1.45,1.64.33,3.14.75,3.14,2.65,0,1.61-1.32,2.51-3.16,2.51-2.37,0-3.55-1.3-3.64-2.92Z"/>
    <path d="M94.54,136.51h1.13l.96,3.4c.19.7.4,1.79.4,1.79h.02s.21-1.03.41-1.77l.92-3.42h1l.91,3.42c.17.65.39,1.78.39,1.78h.02s.17-1.05.4-1.8l1.02-3.4h1.1l-2,6.13h-1.06l-.9-3.38c-.15-.59-.39-1.71-.39-1.71h-.02s-.23,1.13-.38,1.71l-.92,3.38h-1.07l-1.94-6.13Z"/>
    <path d="M104.36,139.58c0-1.78,1.18-3.22,2.93-3.22.91,0,1.62.35,2.1.95.5.6.75,1.48.75,2.52h-4.7c.08,1.2.73,2.11,1.92,2.11.84,0,1.43-.4,1.62-1.05h1.04c-.27,1.14-1.26,1.92-2.67,1.92-1.88,0-2.99-1.44-2.99-3.23ZM105.47,139.07h3.55c-.06-1.18-.66-1.88-1.72-1.88s-1.69.8-1.83,1.88Z"/>
    <path d="M111.56,139.59c0-2.02,1.16-3.23,2.68-3.23.87,0,1.55.43,1.94,1.08h.02c-.02-.27-.03-.72-.03-1.13v-2.17h1.06v8.49h-1.05v-.88h-.02c-.39.66-1.04,1.06-1.89,1.06-1.66,0-2.71-1.26-2.71-3.23ZM116.23,139.6c0-1.38-.65-2.35-1.88-2.35-1.13,0-1.7,1-1.7,2.35s.57,2.34,1.7,2.34c1.31,0,1.88-.99,1.88-2.34Z"/>
    <path d="M118.99,139.58c0-1.78,1.18-3.22,2.93-3.22.91,0,1.62.35,2.1.95.5.6.75,1.48.75,2.52h-4.7c.08,1.2.73,2.11,1.92,2.11.84,0,1.43-.4,1.62-1.05h1.04c-.27,1.14-1.26,1.92-2.67,1.92-1.88,0-2.99-1.44-2.99-3.23ZM120.09,139.07h3.55c-.06-1.18-.66-1.88-1.72-1.88s-1.69.8-1.83,1.88Z"/>
    <path d="M127.57,137.38h.03c.45-.62,1.05-1.02,1.94-1.02,1.28,0,2.07.72,2.07,2v4.28h-1.05v-4.15c0-.79-.51-1.23-1.35-1.23-.95,0-1.63.67-1.63,1.65v3.73h-1.06v-6.13h1.05v.87Z"/>
  </g>
</svg>