<?xml version="1.0" encoding="UTF-8"?>
<svg id="Lager_1" xmlns="http://www.w3.org/2000/svg" version="1.1" viewBox="0 0 500 682.32">
  <defs>
    <style>
      .st0 {
        fill: #000;
      }
    </style>
  </defs>
  <path class="st0" d="M0,0v682.32h500V0H0ZM372.77,538.67c-7.53,16.96-17.91,31.94-31.12,44.96-4.78,4.71-9.9,9.04-15.28,13.05-2.44,1.82-5.18,2.64-8.21,2.64-13.99,0-27.98,0-41.96,0-8.75,0-17.49,0-26.24,0,0,0,0,0,0,0-22.78,0-45.56,0-68.34,0-3.34,0-6.18-1.23-8.81-3.24-22.86-17.4-39.3-39.54-49.26-66.49-3.95-10.7-6.54-21.74-7.87-33.07-1.24-10.48-1.01-21-.68-31.52.13-4.21.38-8.42.59-12.63,1.2-24.67,6.32-48.41,16.38-71.04,6.07-13.66,13.98-26.21,22.61-38.36,14.35-20.19,28.65-40.43,42.76-60.79,10.03-14.49,16.25-30.58,19.01-48,.98-6.19,1.42-12.42,1.4-18.69-.03-10.12-.02-20.25,0-30.37,0-1.22-.09-2.22-1.42-2.83-1.14-.52-1.54-1.68-1.55-2.91-.01-5.2-.04-10.39,0-15.59.02-2.18,1.38-3.42,3.56-3.45,3.87-.06,3.88-.06,3.8-3.97-.06-2.93-.16-5.86-.23-8.79-.04-1.52-.18-1.64-1.65-1.22-9.12,2.63-18.24,5.28-27.36,7.91-4.39,1.27-8.79,2.51-13.17,3.81-1.13.33-1.87.05-2.44-.96-.73-1.29-.59-1.99.72-2.74,4.43-2.54,8.86-5.07,13.29-7.61,21.81-12.48,43.61-24.97,65.42-37.45,14.91-8.54,29.82-17.07,44.73-25.6,2.06-1.18,2.41-1.05,3.62,1.07,5.49,9.6,10.98,19.19,16.47,28.78,1.56,2.73,1.39,3.13-1.64,4.01-13.3,3.83-26.6,7.68-39.91,11.5-1.07.31-1.47.84-1.48,1.98-.06,7.15-.19,14.29-.31,21.44-.04,2.13-.07,4.26-.2,6.39-.07,1.21.41,1.59,1.54,1.49.75-.07,1.51-.04,2.26,0,2.05.1,3.34,1.35,3.35,3.39.04,5.2.02,10.39,0,15.59,0,1.27-.39,2.47-1.6,3.01-1.21.55-1.38,1.43-1.37,2.57.03,6.17,0,12.34.01,18.52,0,5.2-.06,10.39.05,15.59.3,14.77,3.47,28.93,9.13,42.56,4.01,9.66,9.55,18.41,15.57,26.91,14.14,19.96,28.14,40.02,42.26,60,11.39,16.11,20.17,33.52,26.15,52.32,3.72,11.7,6.3,23.65,7.65,35.86.75,6.84,1.19,13.69,1.61,20.55.41,6.61.53,13.22.62,19.82.27,21.42-3.79,41.99-12.5,61.61Z"/>
</svg>
