<?xml version="1.0" encoding="UTF-8"?>
<svg id="Lager_1" xmlns="http://www.w3.org/2000/svg" version="1.1" viewBox="0 0 500 264.3">
  <!-- Generator: Adobe Illustrator 29.5.1, SVG Export Plug-In . SVG Version: 2.1.0 Build 141)  -->
  <defs>
    <style>
      .st0 {
        fill: #13120d;
      }
    </style>
  </defs>
  <path class="st0" d="M490.06,191.71h-44.77c3.45-3.58,6.53-7.19,10.05-10.33,3.33-2.97,4.54-6.19,4.49-10.74-.26-22.43-.11-44.87-.13-67.3,0-9.98-2.18-19.35-8.16-27.55-7.35-10.06-17.22-15.31-29.78-14.84-5.91.22-11.33,2.41-16.33,5.52-5.99,3.72-11.11,8.48-16.07,13.44-.73.73-.66,1.5-.66,2.34,0,24.87,0,49.74,0,74.62,0,6.1.02,12.19-.02,18.29,0,1.12.29,1.91,1.09,2.72,4.42,4.51,8.77,9.09,13.29,13.8h-44.77c1.1-1.19,2.12-2.33,3.18-3.43,3.33-3.47,6.65-6.96,10.05-10.37.8-.81,1.1-1.6,1.1-2.72-.03-18.29-.02-36.58-.02-54.87,0-13.78-.02-27.55.03-41.33,0-1.19-.39-1.82-1.36-2.44-4.05-2.62-8.03-5.33-12.05-7.99-.3-.2-.7-.31-.59-.77.1-.38.5-.26.77-.35,8.96-2.82,17.92-5.64,26.87-8.46.74-.23,1.48-.45,2.41-.73v19.42c2.28-2,4.23-3.76,6.23-5.46,5.36-4.52,10.97-8.63,17.51-11.35,9.37-3.89,19.04-4.72,28.91-2.67,12.64,2.63,22.36,9.5,28.68,20.8,2.76,4.93,4.39,10.3,5.15,15.94.68,5.03.64,10.07.64,15.12,0,21.34.03,42.67-.06,64.01,0,2.09.68,3.51,2.09,4.91,3.71,3.7,7.31,7.5,10.95,11.27.41.42.77.89,1.29,1.5"/>
  <path class="st0" d="M145.65,124.34c.27,37.48-29.51,68.61-67.53,68.81-37.91.19-68.52-30.6-68.52-67.88,0-38.79,30.69-68.67,67.8-68.71,38.71-.03,68.46,31.93,68.25,67.78M67.79,60.87c-7.43.05-13.86,1.58-19.72,5.05-9.53,5.63-15.47,14.14-18.89,24.47-3.74,11.31-4.06,22.9-2,34.57,1.87,10.63,5.59,20.62,11.18,29.87,8.29,13.7,18.96,24.83,34.19,30.9,8.06,3.21,16.37,4.1,24.83,2.03,11.75-2.88,20.05-10.25,25.53-20.78,6.43-12.34,7.5-25.61,5.73-39.15-1.5-11.5-5.4-22.26-11.27-32.28-5.84-9.98-13.21-18.61-22.77-25.25-8.24-5.72-17.28-9.24-26.8-9.42"/>
  <path class="st0" d="M298.03,124.34c.27,37.48-29.51,68.61-67.53,68.81-37.91.19-68.52-30.6-68.52-67.88,0-38.79,30.69-68.67,67.8-68.71,38.71-.03,68.46,31.93,68.25,67.78M220.17,60.87c-7.43.05-13.86,1.58-19.72,5.05-9.53,5.63-15.47,14.14-18.89,24.47-3.74,11.31-4.06,22.9-2,34.57,1.87,10.63,5.59,20.62,11.18,29.87,8.29,13.7,18.96,24.83,34.18,30.9,8.06,3.21,16.37,4.1,24.83,2.03,11.75-2.88,20.05-10.25,25.53-20.78,6.43-12.34,7.5-25.61,5.73-39.15-1.5-11.5-5.4-22.26-11.27-32.28-5.84-9.98-13.21-18.61-22.77-25.25-8.24-5.72-17.28-9.24-26.8-9.42"/>
  <path class="st0" d="M114.95,21.51c-12.41,3.41-24.62,6.76-36.83,10.12-11.92,3.28-23.83,6.56-35.73,9.87-.7.19-1.35.49-1.66-.36-.31-.82.58-.88,1.01-1.12,11.91-6.62,23.85-13.21,35.77-19.81,9.01-4.99,18.02-9.99,27.01-15.03,1.14-.64,1.67-.76,2.37.65,2.56,5.21,5.3,10.33,8.08,15.67"/>
  <path class="st0" d="M313.82,27.04c.02-6.59,5.48-11.95,12.14-11.93,6.68.03,12.09,5.29,12,12-.09,7-5.1,11.84-11.98,12.06-6.62.21-12.18-5.51-12.16-12.13"/>
  <path class="st0" d="M307.84,67.68c10.11-3.2,20.13-6.37,30.18-9.56.24.44.29.9.28,1.37-.01,4.17-.03,8.35-.03,12.52-.02,33.97-.03,67.93-.07,101.9,0,1.87.6,3.38,1.92,4.71,3.38,3.4,6.7,6.86,10.05,10.29.85.87,1.68,1.75,2.57,2.68h-44.93c.23-.25.42-.47.63-.68,1.91-1.96,3.81-3.92,5.72-5.88,2.18-2.24,4.36-4.48,6.54-6.73.68-.7,1.22-1.5,1.46-2.46.09-.37.09-.78.09-1.17,0-8.46,0-16.92-.01-25.37,0-13.72-.02-27.45-.01-41.17,0-9.59.01-19.17.05-28.76,0-1.44-.52-2.45-1.75-3.23-2.66-1.69-5.26-3.45-7.88-5.19-1.53-1.02-3.05-2.05-4.57-3.08-.05-.03-.09-.08-.23-.19"/>
  <path class="st0" d="M316.84,202.92c-2.41-2.42-5.2-4.32-8.36-5.63-11.1-4.59-21.94-3.43-32.56,1.61-7.54,3.58-14.02,8.7-20.38,14-8.63,7.2-16.88,14.86-26.46,20.87-9.85,6.17-20.4,9.75-32.17,8.88-4.99-.37-9.7-1.66-13.34-5.41-4.7-4.85-3.96-12.76-.91-18.37,2.98-5.49,7.79-9.03,13.16-11.94,6.32-3.43,13.24-5.17,20.09-7.12,11.19-3.19,22.38-6.4,33.59-9.52,2.16-.6,4.11-1.48,6.17-2.26-2.82.15-5.54.91-7,1.13-3.34.51-6.64,1.31-9.97,1.86.29,0,.58,0,.87,0-.29.24-.59.4-.92.49-7.3,1.9-14.6,3.8-21.9,5.67-8.07,2.06-16.15,4.09-23.56,8.08-5.3,2.85-10.21,6.25-13.49,11.42-5.86,9.24-6.35,18.82-.86,28.36,4.86,8.45,12.52,13.25,21.92,15.16,11.65,2.37,22.45.2,32.02-7.05,6.51-4.94,11.06-11.48,15.1-19.03.3.49.42.79.62,1.02,8.09,9.29,18.29,14.88,30.35,17.04,12.69,2.28,24.49.4,34.84-7.89,8.99-7.2,12.99-19.03,9.98-29.83-.96-3.44-2.59-6.56-4.92-9.65-.99-1.07-1.91-1.88-1.91-1.88M287.6,249.17c-15.58,1.35-27.87-4.82-38-16.16-.53-.59-.71-1.07-.27-1.91,3.27-6.33,6.79-12.51,11.39-17.97,4.87-5.78,10.46-10.61,18.13-12.39,13.09-3.05,26.09,4.84,29.41,17.88.6,2.37.88,4.76.9,7.19.02,13.03-8.59,22.24-21.57,23.37"/>
</svg>