<?xml version="1.0" encoding="UTF-8"?>
<svg id="Lager_1" xmlns="http://www.w3.org/2000/svg" version="1.1" viewBox="0 0 500 400">
  <!-- Generator: Adobe Illustrator 29.5.1, SVG Export Plug-In . SVG Version: 2.1.0 Build 141)  -->
  <defs>
    <style>
      .st0 {
        fill: #1d1d1b;
      }
    </style>
  </defs>
  <path class="st0" d="M134.62,100.3c-.07-.88,0-1.32.26-1.62.3-.35.79-.45,1.13-.16.31.26.41.72.21,1.67-.21,1.04-.43,2.1-.67,3.11l-.69-.04c-.1-1-.17-1.98-.24-2.96M146.97,103.17c3.75,3.18,3.8,7.62,1.55,10.27-2.25,2.65-6.51,3.47-10.4.17-3.75-3.18-3.77-7.65-1.53-10.29,2.23-2.64,6.49-3.46,10.39-.16M147.66,112.72c2.01-2.36.31-5.5-2.27-7.68-2.57-2.18-5.95-3.34-7.95-.98-2.01,2.36-.32,5.52,2.25,7.7,2.57,2.18,5.96,3.32,7.96.96"/>
  <path class="st0" d="M166.15,94.24c-.62,1.62-1.43,3.01-2.84,4.23-3.37,2.95-7.83,2.47-10.81-.92-2.98-3.39-2.86-7.9.58-10.91,1.38-1.21,2.65-1.88,4.08-2.15l2.21,2.39-1.03.91-2.62-2.12,1.34-.6.84.96c-1.63-.04-2.86.4-3.92,1.32-2.32,2.03-2.46,5.36.36,8.58,2.81,3.2,5.98,3.64,8.56,1.38.94-.83,1.45-1.65,1.98-2.94l-.08,1.5-.87-.99c-1.12-1.29-2.29-2.58-3.45-3.84l1.68-1.47c1.07,1.3,2.2,2.6,3.35,3.93l.64.74ZM159.35,93.26l-.6-.69,4.42-3.87.6.69-1.7,1.8-.38.33-2.33,1.74Z"/>
  <path class="st0" d="M164.59,79.14l-.51-.75,5.22-3.56.51.75-2.23,1.93-.38.26-2.6,1.37ZM169.73,82.93c-1.31-1.9-2.61-3.82-3.97-5.69l1.85-1.27c1.22,1.9,2.53,3.82,3.86,5.76l.62.91c1.3,1.9,2.61,3.83,3.96,5.7l-1.85,1.27c-1.22-1.9-2.53-3.83-3.85-5.77l-.62-.91ZM174.61,87.81l2.61-1.37.51.75-5.22,3.56-.52-.76,2.23-1.93.38-.26Z"/>
  <path class="st0" d="M177.89,70.35l1.48-.15-2.53.93-.41-.82,3.07-1.56,13.97,7.09,1.11,2.18-.69.35-15.98-8.02ZM178.02,69.5l1.42.3,6.39,12.51-1.01.51-6.81-13.32ZM182.71,82.88l1.94-1.37.41-.21,2.46-.88.41.81-4.8,2.46-.42-.81ZM184.59,66.15l4.8-2.46.41.81-1.84,1.31-.41.22-2.56.93-.41-.81ZM186.69,65.08l1.01-.52,6.87,13.47-1.53-.5-6.35-12.45Z"/>
  <path class="st0" d="M208.1,57.73l-.22-.88,3.07-.76.3,1.22-.22.05-2.92.38ZM211.58,63.07c-.55-2.24-1.11-4.5-1.73-6.71l2.18-.55c.48,2.22,1.03,4.47,1.6,6.75l.21.82c.62,2.49,1.17,4.75,1.79,6.97l-2.18.54c-.47-2.21-1.03-4.47-1.66-7l-.21-.82ZM214.29,69.6l2.79-.69c3.35-.84,4.63-3.59,3.65-7.52-1.02-4.09-3.41-5.82-6.57-5.04l-2.98.74-.25-1.02,3.34-.83c4.15-1.03,7.66.83,8.82,5.55,1.16,4.68-1.41,8.04-5.65,9.09l-2.92.73-.25-1.02ZM214.24,69.4l.3,1.22-3.06.75-.22-.88,2.76-1.03.22-.06Z"/>
  <path class="st0" d="M229.02,53.22l-.12-.9,6.27-.79.12.9-2.87.7-.45.06-2.94.02ZM233.98,65.51l2.94-.03.12.9-6.27.79-.12-.91,2.87-.69.45-.06ZM231.86,58.93c-.29-2.28-.58-4.59-.93-6.87l2.23-.28c.22,2.25.5,4.56.79,6.89l.14,1.09c.29,2.29.58,4.6.93,6.87l-2.23.28c-.22-2.25-.5-4.56-.79-6.89l-.14-1.09Z"/>
  <path class="st0" d="M251.24,62.19c-.02-1.44-.89-2.07-2.82-2.78l-.86-.33c-2.32-.87-3.9-2.13-3.94-4.42-.05-2.58,2.09-4.19,4.96-4.24,1.51-.03,2.72.41,3.7,1.12l-.08,2.92-1.38.02-.68-3.37,1.46.7.02,1.12c-1.12-1.04-1.95-1.41-3.13-1.39-1.72.03-3.01.93-2.98,2.57.02,1.4.94,2.2,2.57,2.79l.89.33c2.96,1.09,4.13,2.37,4.17,4.48.05,2.64-2.13,4.3-5.23,4.36-1.67.03-3.33-.46-4.39-1.11l.08-3.14,1.38-.02.64,3.45-1.48-.6-.02-1.08c1.41.97,2.18,1.4,3.7,1.37,2.1-.04,3.46-1.05,3.42-2.76"/>
  <path class="st0" d="M261.28,52.14l1.16-1.01-1.13,3.89-1.28-.13.6-3.95,12.21,1.3-.26,3.99-1.28-.13-.28-4.04.92,1.23-10.64-1.14ZM265.51,65.26l3.09.67-.1.9-6.73-.71.1-.91h3.16l.48.05ZM264.94,58.37c.25-2.29.49-4.61.67-6.9l2.23.24c-.31,2.24-.55,4.56-.8,6.89l-.12,1.09c-.25,2.3-.49,4.61-.67,6.9l-2.23-.23c.31-2.24.55-4.56.8-6.89l.12-1.1Z"/>
  <path class="st0" d="M280.91,67.85l2.79.98-.2.88-6.17-1.39.2-.89,2.94.32.45.1ZM281.15,60.94c.51-2.25,1.03-4.51,1.46-6.77l2.19.49c-.56,2.19-1.08,4.46-1.59,6.75l-.25,1.08c-.5,2.25-1.02,4.52-1.46,6.78l-2.19-.5c.56-2.18,1.08-4.46,1.6-6.75l.24-1.08ZM280.43,54.61l.2-.89,6.17,1.4-.21.88-2.94-.31-.45-.11-2.78-.97Z"/>
  <path class="st0" d="M293.2,71.24l-.41,1.17-2.98-1.04.3-.86,2.88.65.22.07ZM296.68,57.92l2.12.74c-.83,2.15-1.6,4.35-2.36,6.52l-.51,1.46c-.63,1.79-1.4,3.99-2.08,6.14l-2.12-.74c.82-2.15,1.59-4.34,2.35-6.49l.37-1.07c.78-2.22,1.55-4.41,2.23-6.57M301.93,71.16l-1.6,3.9-7.53-2.65.37-1.06,6.8,2.38-1.56.65,2.24-3.68,1.29.45ZM294.46,58.11l.31-.86,5.96,2.09-.3.86-2.88-.65-.44-.16-2.65-1.28Z"/>
  <path class="st0" d="M309.52,77.85l-.56,1.12-2.81-1.43.41-.81,2.76,1.02.21.11ZM314.72,65.11l2.01,1.02c-1.11,2.02-2.16,4.09-3.2,6.15l-.69,1.37c-.86,1.7-1.91,3.78-2.88,5.82l-2-1.02c1.1-2.02,2.15-4.09,3.18-6.13l.51-1.01c1.06-2.09,2.11-4.17,3.07-6.21M318.18,78.91l-2.11,3.65-7.12-3.61.51-1.01,6.43,3.26-1.63.44,2.7-3.36,1.22.62ZM312.49,65l.41-.81,5.64,2.85-.41.82-2.76-1.03-.42-.22-2.46-1.62Z"/>
  <path class="st0" d="M324.84,86.53l-.7,1.03-2.6-1.78.51-.75,2.6,1.37.19.13ZM327.8,80.33c1.3-1.9,2.61-3.82,3.85-5.76l1.85,1.27c-1.33,1.83-2.64,3.75-3.97,5.68l-.47.69c-1.45,2.12-2.76,4.04-4,5.98l-1.85-1.27c1.32-1.83,2.64-3.75,3.96-5.69l.63-.91ZM333.46,89.12l-2.37,3.19-6.95-4.75.63-.93,6.31,4.31-1.5.34,2.82-2.89,1.06.73ZM332.32,84.53l-4.16-2.85.59-.86,4.17,2.84-.6.87ZM329.47,74.18l.51-.75,2.6,1.78-.7,1.03-.19-.13-2.22-1.93ZM332.19,83.45l1.6-1.76.84.58-2.98,4.35-.84-.57,1.12-2.23.26-.36ZM337.66,78.67l.22,1.52-5.94-4.06.64-.93,6.58,4.5-2.11,3.37-1.07-.73,1.67-3.67Z"/>
  <path class="st0" d="M339.49,97.59l1.94,2.22-.61.68-4.69-4.24.61-.68,2.4,1.72.35.31ZM343.09,91.69c1.55-1.71,3.11-3.43,4.61-5.19l1.66,1.51c-1.61,1.68-3.08,3.32-4.85,5.27l-.45.5c-1.7,1.87-3.26,3.6-4.75,5.35l-1.66-1.5c1.56-1.63,3.13-3.36,4.71-5.1l.74-.82ZM343.81,92.46l2.07,1.87c1.79,1.62,3.5,1.41,4.7.08,1.26-1.39,1.2-2.82-.51-4.36l-2.24-2.03.69-.78,2.31,2.08c2.54,2.3,3.06,4.72,1.4,6.56-1.27,1.41-3.52,1.69-5.9-.13l.17-.09c1.17,1.27,1.39,2.49.46,4.39l-1.69,3.46-.25-.85,1.57,1.79-.61.68c-.42-.19-.88-.48-1.39-.94-1.05-.95-1.27-1.65-.75-2.62l1.74-3.26c.88-1.62.5-2.41-.85-3.65l-1.6-1.44.69-.76ZM345.57,85.81l.61-.68,2.34,2.12-.84.93-.17-.15-1.95-2.22Z"/>
  <path class="st0" d="M354.28,112.61l1.78,2.61-.69.59-4.37-5.15.69-.6,2.29,2.18.31.36ZM357.62,108.08l1.36,1.61c-1.98,1.68-3.61,3.06-5.08,4.4l-1.46-1.71c1.53-1.21,3.17-2.6,5.17-4.3M356.57,109.48l4.42-10.16,1.57,1.85-4.06,8.74-.5-.59,9.36-2.5.75.88-10.7,2.76-.84-.99ZM359.5,98.97l.69-.59,4.08,4.81-.69.59-2.13-1.99-.31-.36-1.65-2.46ZM366.33,107.54l-1.34-2.09.69-.59,3.31,3.89-.69.59-1.7-1.47-.28-.33Z"/>
  <path class="st0" d="M249.83,321.71c-66.88,0-121.29-54.41-121.29-121.28s54.41-121.29,121.29-121.29,121.29,54.41,121.29,121.29-54.41,121.28-121.29,121.28M249.83,80.57c-66.09,0-119.85,53.77-119.85,119.85s53.77,119.85,119.85,119.85,119.85-53.77,119.85-119.85-53.77-119.85-119.85-119.85"/>
  <path class="st0" d="M249.83,365.9c-91.24,0-165.47-74.23-165.47-165.47S158.59,34.95,249.83,34.95s165.47,74.23,165.47,165.47-74.23,165.47-165.47,165.47M249.83,36.39c-90.45,0-164.04,73.59-164.04,164.04s73.59,164.04,164.04,164.04,164.04-73.59,164.04-164.04S340.28,36.39,249.83,36.39"/>
  <path class="st0" d="M131.26,122.69c0,1.06-.86,1.93-1.93,1.93s-1.92-.87-1.92-1.93.86-1.93,1.92-1.93,1.93.87,1.93,1.93"/>
  <path class="st0" d="M371.95,122.9c0,1.06-.86,1.93-1.93,1.93s-1.92-.87-1.92-1.93.86-1.93,1.92-1.93,1.93.87,1.93,1.93"/>
  <path class="st0" d="M303.41,200.19c.21,29.63-23.3,54.24-53.34,54.39-29.93.16-54.11-24.19-54.11-53.66s24.23-54.29,53.54-54.31c30.57-.02,54.06,25.25,53.9,53.58M241.92,150.02c-5.86.04-10.94,1.25-15.58,3.99-7.52,4.45-12.21,11.17-14.92,19.34-2.95,8.94-3.2,18.1-1.58,27.32,1.48,8.41,4.42,16.31,8.82,23.61,6.55,10.83,14.98,19.63,27,24.43,6.37,2.54,12.92,3.24,19.61,1.6,9.28-2.27,15.83-8.1,20.16-16.42,5.07-9.76,5.92-20.25,4.52-30.95-1.17-9.09-4.26-17.6-8.89-25.52-4.61-7.89-10.44-14.71-17.98-19.95-6.52-4.52-13.64-7.31-21.17-7.45"/>
  <path class="st0" d="M279.16,118.9c-9.8,2.7-19.44,5.35-29.08,8-9.41,2.59-18.81,5.18-28.21,7.8-.55.16-1.07.39-1.31-.28-.24-.65.45-.69.79-.88,9.41-5.23,18.83-10.44,28.25-15.66,7.11-3.94,14.23-7.9,21.33-11.88.89-.5,1.31-.6,1.87.52,2.02,4.12,4.18,8.17,6.38,12.39"/>
  <path class="st0" d="M115.95,137.52l-1.67,2.74-.82-.39,2.9-6.17.83.38-1.05,3.03-.19.41ZM122.76,139.34c2.12,1,4.26,2.01,6.41,2.94l-.93,1.98c-2.05-1.04-4.18-2.04-6.34-3.06l-1.03-.5c-2.12-.99-4.26-2-6.41-2.94l.93-1.97c2.05,1.03,4.18,2.04,6.34,3.06l1.03.48ZM129.98,137.89l.59,1.41-3.35-2.38.55-1.15,3.58,1.89-5.28,11.24-3.74-1.56.54-1.15,3.98,1.06-1.47.45,4.61-9.79Z"/>
  <path class="st0" d="M106.88,162.28l-1.18,2.74-.87-.26,1.84-6.09.87.26-.52,2.93-.13.43ZM113.88,163.08c2.23.68,4.5,1.36,6.76,1.96l-.63,2.09c-2.18-.73-4.44-1.41-6.72-2.09l-1.08-.33c-2.24-.67-4.51-1.35-6.76-1.96l.63-2.09c2.17.74,4.44,1.41,7.15,2.22l.66.2ZM109.63,153.15l-1.17,2.74-.87-.27,1.83-6.08.87.26-.52,2.92-.13.44ZM116.62,153.94c2.24.69,4.51,1.36,6.76,1.97l-.63,2.08c-2.18-.72-4.44-1.4-6.72-2.08l-.65-.2c-2.67-.81-4.94-1.49-7.19-2.09l.63-2.09c2.17.73,4.44,1.41,6.72,2.09l1.08.32ZM115.46,154.67l1,.3-2.75,9.14-.99-.31,2.75-9.13ZM120.36,162.78l.87.26-1.83,6.09-.87-.26.52-2.93.13-.43,1.17-2.73ZM123.11,153.65l.88.26-1.84,6.09-.87-.26.52-2.93.13-.43,1.17-2.73Z"/>
  <path class="st0" d="M105.5,184.97l-3.99-.74,1.27-8.49,1.12.17-1.14,7.7-.98-1.18,3.9,1.29-.19,1.27ZM111.03,175.93c2.32.34,4.66.69,6.99.96l-.32,2.17c-2.27-.4-4.61-.75-6.97-1.1l-.85-.12c-2.59-.39-4.93-.74-7.26-1.01l.32-2.17c2.27.41,4.61.75,6.97,1.11l1.12.17ZM104.01,175.92l-1.23-.18.46-3.15.9.13-.1,2.98-.03.22ZM110.12,181.29l2.33.69-.15,1.02-5.33-.79.15-1.02,2.55.03.45.07ZM109.2,181.89l.75-5.09,1.03.15-.75,5.09-1.03-.15ZM116.93,184.2l-1.28.85,1.07-7.25,1.12.17-1.19,8.04-4.03-.44.18-1.26,4.12-.11ZM117.42,174.69l.9.14-.47,3.14-1.23-.18.03-.22.77-2.88Z"/>
  <path class="st0" d="M102.12,205.88l-.19,2.98-.91.05-.33-6.37.91-.05.5,2.94.02.45ZM108.99,204.27c2.34-.12,4.7-.24,7.04-.43l.12,2.17c-2.31.06-4.66.17-7.05.3l-1.38.07c-2.32.12-4.46.24-6.8.43l-.12-2.18c2.3-.05,4.66-.17,7.05-.3l1.14-.06ZM106.99,207.66l-.12-2.25,1.04-.05.13,2.59c.15,2.79,1.68,3.81,3.85,3.7,2.2-.12,3.42-1.41,3.27-4.16l-.12-2.5,1.04-.06.15,2.94c.2,3.77-1.56,5.8-4.23,5.94-2.54.13-4.77-1.5-5.01-6.14M115.01,201.79l.91-.04.17,3.18-1.25.07-.02-.22.19-2.98Z"/>
  <path class="st0" d="M104.72,228.56c.49,2.57,2.19,3.59,6.19,2.83l8.29-1.57.21,1.12-8.86,1.69c-4.68.89-6.86-1.06-7.43-4.07-.61-3.24.78-5.77,4.93-6.56l2.41-.46c2.3-.44,4.62-.88,6.9-1.38l.41,2.14c-2.27.36-4.59.8-6.94,1.25l-1.76.33c-3.85.74-4.77,2.41-4.34,4.69M116.11,218.49l.9-.17,1.18,6.26-.89.17-.88-2.84-.08-.45-.22-2.96ZM117.99,230.2l-.13-2.52.89-.17,1.02,5.36-.89.17-.8-2.4-.08-.45Z"/>
  <path class="st0" d="M108.99,245.56l.62,2.9-.86.29-2.03-6.03.86-.29,1.27,2.7.14.43ZM115.16,242.16c2.22-.75,4.46-1.51,6.66-2.32l.69,2.07c-2.27.69-4.37,1.41-6.91,2.27l-.64.22c-2.43.82-4.67,1.58-6.87,2.39l-.69-2.07c2.2-.67,4.43-1.42,6.7-2.19l1.07-.36ZM115.39,243.16l.9,2.7c.79,2.32,2.41,3.02,4.16,2.44,1.81-.62,2.47-1.92,1.72-4.16l-.99-2.94.99-.32.99,2.94c1.12,3.3.36,5.71-2.03,6.52-1.83.62-3.98-.27-5.16-3.02l.2.02c.36,1.6-.02,2.79-1.77,4.03l-3.22,2.26.19-.81.49,2.31-.86.29c-.26-.34-.52-.83-.74-1.47-.45-1.34-.3-2.03.6-2.63l3.22-2.07c1.6-1.02,1.63-1.92,1.03-3.7l-.69-2.06.98-.32ZM120.29,238.15l.86-.29,1.02,3.02-1.18.4-.07-.22-.62-2.9Z"/>
  <path class="st0" d="M116.39,264.3l-1.12.56-1.42-2.85.82-.41,1.62,2.5.11.2ZM122.15,260.29c2.1-1.04,4.21-2.09,6.28-3.21l.97,1.97c-2.08.96-4.2,2.01-6.34,3.08l-.77.39c-2.35,1.17-4.47,2.22-6.53,3.32l-.98-1.95c2.09-.97,4.21-2.02,6.35-3.09l1.02-.5ZM122.79,270.87l-3.7,1.67-3.82-7.68,1.02-.51,3.46,6.97-1.46-.41,3.94-1.18.57,1.14ZM124.06,266.22l-2.29-4.61.93-.46,2.29,4.61-.93.46ZM124.46,265.21l2.32-.77.45.92-4.82,2.4-.46-.91,2.11-1.43.41-.21ZM126.68,255.61l.81-.4,1.42,2.85-1.12.55-.1-.2-1.02-2.8ZM131.72,263.7l-.56,1.42-3.27-6.55,1.02-.5,3.62,7.26-3.55,1.95-.57-1.14,3.31-2.44Z"/>
  <path class="st0" d="M136.48,292.04c1.17-.9,1.15-2.01.55-4.04l-.26-.89c-.69-2.39-.62-4.46,1.22-5.87,2.08-1.6,4.68-.82,6.44,1.46.93,1.21,1.28,2.46,1.31,3.68l-2.42,1.69-.84-1.08,2.33-2.6.3,1.61-.9.69c.18-1.55-.02-2.46-.76-3.41-1.08-1.41-2.6-1.93-3.95-.88-1.14.88-1.23,2.13-.72,3.83l.26.91c.91,3.08.58,4.81-1.12,6.12-2.13,1.63-4.8.84-6.7-1.62-1.04-1.36-1.62-3-1.74-4.23l2.6-1.83.84,1.08-2.41,2.61-.4-1.56.86-.67c.05,1.74.17,2.63,1.11,3.85,1.32,1.72,2.99,2.24,4.39,1.16"/>
  <path class="st0" d="M142.91,302.89l1.83,2.34-.64.64-4.47-4.53.64-.64,2.32,1.86.32.33ZM146.97,297.13c1.67-1.65,3.36-3.29,4.98-4.99l1.52,1.55c-1.68,1.56-3.37,3.22-5.07,4.89l-.98.98c-1.65,1.62-3.18,3.13-4.8,4.82l-1.53-1.55c1.69-1.56,3.37-3.22,5.07-4.9l.81-.79ZM147.73,300.98l-1.58-1.6.74-.74,1.81,1.84c1.97,1.99,3.78,1.74,5.32.22,1.57-1.54,1.62-3.31-.31-5.27l-1.75-1.78.74-.74,2.06,2.08c2.64,2.7,2.67,5.37.78,7.24-1.82,1.79-4.56,2.04-7.81-1.27M149.83,291.3l.64-.64,2.23,2.27-.89.88-.16-.17-1.83-2.34Z"/>
  <path class="st0" d="M156.52,315.48l2.08,2.14-.58.7-4.94-4.04.58-.69,2.51,1.6.36.29ZM159.95,309.32c1.49-1.82,2.99-3.65,4.42-5.51l1.69,1.39c-1.5,1.73-3.01,3.56-4.52,5.42l-.72.88c-1.49,1.81-2.99,3.65-4.42,5.5l-1.7-1.37c1.51-1.74,3.01-3.57,4.52-5.42l.72-.88ZM162.17,303.19l.58-.7,4.93,4.04-.58.7-2.51-1.62-.35-.28-2.08-2.14Z"/>
  <path class="st0" d="M167.75,323.87l2.29,1.89-.5.77-5.35-3.46.5-.77,2.67,1.32.39.24ZM170.46,317.37c1.27-1.96,2.55-3.95,3.76-5.95l1.84,1.17c-1.34,1.95-2.55,3.82-4,6.08l-.37.57c-1.4,2.16-2.67,4.14-3.89,6.15l-1.84-1.19c1.31-1.89,2.59-3.88,3.89-5.88l.61-.96ZM171.26,318.03l2.38,1.55c2.06,1.33,3.77.86,4.77-.69,1.03-1.6.74-3.03-1.25-4.32l-2.6-1.67.57-.88,2.61,1.69c2.93,1.89,3.84,4.23,2.47,6.36-1.05,1.61-3.27,2.27-5.91.86l.16-.12c1.28,1.02,1.72,2.19,1.12,4.24l-1.11,3.78-.36-.75,1.82,1.5-.5.77c-.41-.11-.92-.32-1.5-.69-1.18-.76-1.5-1.41-1.17-2.43l1.23-3.61c.61-1.8.08-2.52-1.5-3.54l-1.82-1.17.56-.86ZM171.97,311.05l.49-.76,2.68,1.73-.68,1.05-.19-.12-2.3-1.89Z"/>
  <path class="st0" d="M185.28,334.01l2.5,1.62-.41.8-5.7-2.81.41-.82,2.79,1.01.41.2ZM187.23,327.24c1.03-2.1,2.08-4.22,3.05-6.34l1.96.97c-1.07,2.03-2.13,4.14-3.18,6.28l-.5,1.03c-1.04,2.09-2.08,4.22-3.06,6.34l-1.95-.97c1.07-2.03,2.12-4.14,3.18-6.28l.5-1.02ZM188,320.79l.41-.81,5.7,2.82-.4.82-2.8-1.01-.41-.21-2.5-1.61Z"/>
  <path class="st0" d="M200.42,340.44l2.88,1.41-.31.85-6.42-2.33.31-.85,3.11.77.43.15ZM199.51,326.43l1.35-.72-2.07,3.56-1.2-.44,1.55-3.75,11.68,4.23-1.22,3.88-1.2-.44.7-4.05.57,1.41-10.18-3.7ZM201.62,333.5c.8-2.2,1.6-4.42,2.34-6.65l2.05.74c-.84,2.14-1.65,4.37-2.46,6.61l-.39,1.08c-.8,2.2-1.61,4.42-2.35,6.65l-2.05-.74c.85-2.13,1.65-4.36,2.46-6.61l.4-1.07Z"/>
  <path class="st0" d="M237.71,342.41c-.7,4.94-4.5,7.42-8,6.91-3.49-.49-6.5-3.72-5.78-8.86.7-4.95,4.55-7.41,8.01-6.91,3.47.49,6.49,3.71,5.76,8.86M229.88,348.2c3.18.45,4.99-2.75,5.47-6.12.48-3.38-.38-6.95-3.56-7.41-3.18-.44-5.01,2.75-5.48,6.13-.48,3.37.39,6.95,3.57,7.4"/>
  <path class="st0" d="M247.41,349.16l2.95.36v.91l-6.37-.05v-.9l2.96-.32h.45ZM244.09,336.06v-.91l3.18.02v1.25h-.23l-2.95-.36ZM246.21,342.22c.02-2.33.03-4.71-.02-7.05l2.18.02c-.08,2.3-.1,4.66-.12,7.05v.87c-.02,2.61-.04,4.98.02,7.32l-2.19-.02c.09-2.29.11-4.66.12-7.05v-1.14ZM252.55,343.19l-5.32-.03v-1.04s5.33.03,5.33.03v1.04ZM253.58,335.22l1.02,1.14-7.33-.04v-1.14s8.12.05,8.12.05l.13,4.05h-1.27l-.68-4.06ZM251.83,342.37l.36-2.41h1.02l-.03,5.61h-1.03l-.32-2.53v-.68Z"/>
  <path class="st0" d="M280.35,343.88c-.26-1.46-1.26-1.94-3.34-2.35l-.92-.18c-2.45-.48-4.25-1.49-4.67-3.78-.47-2.57,1.41-4.53,4.26-5.05,1.5-.28,2.77-.02,3.86.51l.41,2.94-1.35.24-1.24-3.27,1.56.47.21,1.12c-1.3-.88-2.19-1.11-3.37-.88-1.75.32-2.92,1.43-2.6,3.11.26,1.42,1.32,2.08,3.08,2.4l.93.18c3.17.6,4.55,1.69,4.94,3.8.48,2.64-1.44,4.66-4.51,5.23-1.68.31-3.42.07-4.56-.4l-.44-3.16,1.34-.25,1.22,3.35-1.57-.36-.2-1.08c1.57.75,2.41,1.07,3.94.79,2.12-.4,3.36-1.64,3.03-3.38"/>
  <path class="st0" d="M287.47,331.62l-2.9.64-.3-.86,5.81-1.99.3.87-2.47,1.21-.44.14ZM294.46,327.92l.69-.23,8.03,10.74-.54.18-.79-13.22,1.08-.36,1.06,15.91-.85.3-8.34-10.88.69-.23.32,13.62-.84.28-9.18-13.13,2-.69,7.38,10.96-.61.2-.1-13.45ZM295.05,329.03l-2.86.61-.3-.85,5.81-1.99.29.86-2.51,1.23-.43.14ZM302.18,326.6l-2.37.45-.3-.86,4.91-1.68.29.86-2.1,1.07-.43.15Z"/>
  <path class="st0" d="M309.29,323.05l-.43-.81,2.81-1.49.58,1.11-.2.1-2.76,1.09ZM314.07,327.45c-1.1-2.07-2.21-4.15-3.36-6.19l1.92-1.03c1.02,2.06,2.13,4.15,3.24,6.25l.41.77c1.22,2.3,2.33,4.39,3.49,6.43l-1.93,1.02c-1.02-2.06-2.13-4.13-3.24-6.25l-.53-1ZM317.23,317.8l1.43.53-6.47,3.42-.52-1,7.16-3.8,2.03,3.5-1.12.6-2.51-3.24ZM319.95,325.38l-4.55,2.41-.48-.93,4.52-2.41.5.92ZM318.22,333.09l.59,1.11-2.81,1.49-.42-.8,2.45-1.69.2-.11ZM318.91,325.01l-.83-2.29.9-.48,2.53,4.75-.91.48-1.48-2.07-.22-.4ZM324.61,326.53l1.75,3.65-7.56,4.02-.53-1.01,6.86-3.65-.37,1.5-1.27-3.91,1.12-.6Z"/>
  <path class="st0" d="M324.7,314.46l-.53-.74,2.58-1.88.74,1.02-.19.13-2.6,1.46ZM330.07,318.16c-1.37-1.9-2.76-3.81-4.2-5.67l1.77-1.28c1.3,1.9,2.69,3.82,4.09,5.76l.5.69c1.54,2.13,2.94,4.04,4.36,5.9l-1.76,1.28c-1.3-1.9-2.69-3.82-4.25-5.97l-.51-.7ZM335.1,323.33l2.38-1.72c2.89-2.11,3.05-5.2.62-8.55-2.53-3.48-5.47-4.19-8.19-2.22l-2.54,1.85-.62-.85,2.85-2.08c3.5-2.54,7.51-2.13,10.43,1.89,2.89,3.98,1.74,8.13-1.83,10.73l-2.49,1.8-.62-.85ZM334.98,323.18l.74,1.01-2.57,1.88-.55-.74,2.19-2.02.19-.13Z"/>
  <path class="st0" d="M340.11,302.62l-.61-.67,4.69-4.32.62.68-1.95,2.26-.33.3-2.41,1.75ZM345.87,305.68c-1.59-1.72-3.18-3.46-4.83-5.14l1.61-1.49c1.5,1.74,3.11,3.48,4.73,5.24l.77.84c1.58,1.72,3.18,3.47,4.82,5.14l-1.6,1.48c-1.51-1.74-3.11-3.47-4.72-5.24l-.78-.84ZM351.49,309.95l2.41-1.75.62.67-4.69,4.32-.62-.68,1.94-2.25.34-.31Z"/>
  <path class="st0" d="M362.43,295.23c-1.11-.98-2.18-.74-4.08.22l-.83.42c-2.21,1.13-4.25,1.46-6-.07-1.95-1.73-1.69-4.43.22-6.6,1-1.14,2.16-1.73,3.35-1.98l2.13,2.05-.9,1.03-2.99-1.79,1.52-.6.85.75c-1.55.11-2.4.49-3.19,1.4-1.17,1.32-1.4,2.91-.12,4.04,1.08.95,2.32.8,3.9-.02l.84-.43c2.86-1.49,4.61-1.49,6.22-.07,2,1.78,1.74,4.55-.31,6.88-1.12,1.28-2.64,2.17-3.83,2.51l-2.28-2.21.9-1.03,3.01,1.87-1.46.69-.82-.72c1.7-.38,2.55-.66,3.58-1.82,1.42-1.61,1.62-3.35.29-4.52"/>
  <path class="st0" d="M359.2,282.39l-.76-.51,3.56-5.28.76.5-1.36,2.65-.26.38-1.93,2.27ZM365.51,284.02c-1.95-1.31-3.91-2.62-5.9-3.88l1.22-1.81c1.87,1.34,3.84,2.66,5.82,3.99l.56.38c2.32,1.56,4.29,2.88,6.28,4.13l-1.22,1.81c-1.88-1.35-3.84-2.66-5.82-3.99l-.94-.64ZM364.53,274.45l-.76-.5,3.56-5.29.75.5-1.36,2.65-.25.37-1.93,2.27ZM370.83,276.09c-1.94-1.31-3.9-2.63-5.9-3.88l1.22-1.82c1.87,1.35,3.84,2.66,5.82,3.99l.94.64c1.94,1.31,3.91,2.62,5.9,3.88l-1.22,1.81c-1.88-1.34-3.84-2.66-6.2-4.24l-.57-.38ZM366.83,283.68l-.86-.59,5.33-7.93.87.58-5.33,7.94ZM371.97,286.85l1.93-2.27.75.5-3.56,5.29-.75-.51,1.36-2.64.26-.38ZM377.3,278.92l1.93-2.26.76.5-3.56,5.28-.76-.5,1.37-2.65.26-.38Z"/>
  <path class="st0" d="M375.05,255.36l-.84-.33,2.32-5.93.84.33-.76,2.88-.17.42-1.39,2.63ZM374.96,253.08l.79-2.03c2.16.93,4.36,1.79,6.53,2.64l1.48.58c1.8.7,4,1.56,6.17,2.34l-.8,2.03c-2.16-.92-4.35-1.78-6.53-2.63l-1.06-.42c-2.22-.87-4.42-1.73-6.58-2.51M388.37,257.16l1.16.45-1.16,2.96-.84-.33.76-2.88.08-.21ZM388.59,248.3l3.89,1.77-2.96,7.55-1.06-.41,2.67-6.81.6,1.58-3.65-2.4.5-1.27Z"/>
  <path class="st0" d="M381.47,233.06l.33-1.33,16.17-1.42-.5,2.05-14.33,1.21.12-.5,12.13,7.74-.25,1.04-13.67-8.78ZM389.91,237.86l1.46-5.96,1.11-.11-1.64,6.67-.93-.6ZM393.9,243.08l.21-2.29.11-.45.93-2.34.88.22-1.24,5.08-.88-.22ZM395.94,234.73l.35-2.87.12-.44,1-2.66.88.22-1.46,5.97-.88-.22Z"/>
  <path class="st0" d="M385.12,220.62l-.9-.09.33-3.17,1.25.13-.02.22-.66,2.9ZM391.45,219.13c-2.33-.25-4.68-.5-7.01-.69l.23-2.17c2.27.31,4.63.57,7,.82l1.37.15c2.31.25,4.43.48,6.77.66l-.24,2.17c-2.27-.31-4.62-.57-7-.83l-1.12-.12ZM393.95,216.11l-.24,2.24-1.04-.11.27-2.58c.31-2.78-1.04-4.02-3.19-4.26-2.2-.23-3.59.85-3.89,3.59l-.27,2.48-1.04-.11.32-2.91c.41-3.76,2.46-5.48,5.11-5.19,2.53.27,4.47,2.24,3.97,6.85M398.48,218.64l.65-2.9.91.1-.69,6.33-.9-.09-.02-2.99.05-.45Z"/>
  <path class="st0" d="M386.55,203.65l-.91.02-.12-6.38.91-.02.4,2.95v.45s-.27,2.97-.27,2.97ZM385.59,201.58l-.03-2.18c2.35.02,4.71-.02,7.05-.07l1.6-.04c1.93-.03,4.31-.07,6.6-.19l.05,2.18c-2.35-.02-4.72.02-7.06.07l-1.14.02c-2.39.05-4.75.09-7.06.21M396.38,191.92l4.29.14.16,8.13-1.14.02-.14-7.33,1.16,1.23-4.29-.83-.03-1.36ZM399.57,200.21l1.26-.02.07,3.18-.92.02-.4-2.96v-.22Z"/>
  <path class="st0" d="M383.95,180.47l-.21-1.35,14.36-7.54.32,2.08-12.74,6.62-.08-.51,14.17,2.47.17,1.05-15.98-2.83ZM393.57,181.65l-.94-6.06.97-.52,1.07,6.78-1.09-.2ZM397.93,176.43l-.78-2.78-.07-.45-.11-2.84.91-.15.94,6.07-.9.14ZM399.26,184.93l-.69-2.19-.07-.45-.06-2.52.9-.14.81,5.17-.9.14Z"/>
  <path class="st0" d="M379.05,158.94l-1.6-5.22.88-.27.98,2.08.13.43.47,2.71-.87.26ZM378.35,156.66l-.33-1.09,14.74-4.5-.75,1.42-13.65,4.17ZM382.06,166.39l.12-1.5.47,2.7-.88.27-.99-3.27,9.67-12.83,2.31-.7.22.69-10.91,14.63ZM381.24,166.13l.55-1.36,13.7-4.18.34,1.08-14.59,4.47ZM395.52,163.78l-1.03-2.18-.13-.44-.43-2.59.87-.27,1.59,5.22-.87.26Z"/>
  <path class="st0" d="M386.95,139.8l-1.27-2.65c-1.53-3.22-4.55-3.95-8.28-2.17-3.88,1.85-5.11,4.6-3.66,7.63l1.35,2.83-.94.45-1.51-3.18c-1.86-3.89-.73-7.76,3.74-9.88,4.44-2.12,8.3-.22,10.2,3.75l1.31,2.77-.93.45ZM380.95,143.79c-2.12,1-4.24,2.02-6.33,3.08l-.93-1.97c2.1-.92,4.23-1.93,6.38-2.96l.79-.37c2.36-1.12,4.49-2.13,6.57-3.21l.94,1.97c-2.11.93-4.23,1.94-6.64,3.08l-.78.37ZM376.34,148.37l-.83.4-1.36-2.87,1.12-.54.1.2.97,2.81ZM386.76,139.88l1.12-.54,1.37,2.87-.83.39-1.57-2.51-.1-.21Z"/>
</svg>