<?xml version="1.0" encoding="UTF-8"?>
<svg id="Lager_1" xmlns="http://www.w3.org/2000/svg" version="1.1" viewBox="0 0 294.7 76.68">
  <!-- Generator: Adobe Illustrator 29.5.1, SVG Export Plug-In . SVG Version: 2.1.0 Build 141)  -->
  <path d="M13.22,24.27c-.26-.12-.53-.22-.8-.32.4.63.8,1.27,1.19,1.9,2.73-2.51,6.26-4.17,9.64-5.58,3.85-1.6,7.75-3.08,11.72-4.35,6.68-2.15,13.73-3.64,20.73-3.54,2.45.03,5.23.29,7.32,1.7,2.39,1.61,2.82,4.54,2.28,7.2-.66,3.22-2.56,6.15-4.52,8.73-1.95,2.58-4.14,4.96-6.26,7.38-5.55,6.34-11.5,12.35-17.87,17.87-6.16,5.35-12.62,10.45-20.21,13.61-1.85.76-6.57,2.33-6.29-1.23.17-2.19,1.7-4.31,2.96-6.02,3.76-5.13,8.57-9.51,13.63-13.32,6.56-4.94,13.72-9.23,21.12-12.79,7.73-3.72,15.86-6.63,24.32-8.16,2.15-.39,4.31-.62,6.49-.45-.32-.33-.64-.66-.96-.98-.1.12-.21.2-.37.21-.83.26.48,1.34,1.1,1.14.39-.12.62-.22.81-.6.25-.5-.58-.95-.96-.98-4.41-.34-8.9.95-13.1,2.18-4.35,1.28-8.63,2.83-12.79,4.63-7.98,3.45-15.67,7.77-22.84,12.69-6.05,4.15-11.73,8.94-16.32,14.7-1.81,2.27-6.95,8.82-1.97,10.58,1.46.52,3.08.12,4.5-.36,1.74-.6,3.46-1.39,5.1-2.22,3.9-1.97,7.45-4.56,10.87-7.26,7.12-5.63,13.74-11.88,19.9-18.56,2.57-2.78,5.08-5.63,7.52-8.5,2.25-2.64,4.44-5.43,5.9-8.6,1.22-2.63,1.99-5.88.75-8.65-1.01-2.24-3.25-3.5-5.54-4.12-2.58-.69-5.31-.72-7.96-.57-3.63.21-7.27.49-10.83,1.22-4.52.92-8.99,2.16-13.37,3.62-4.02,1.34-8.12,2.94-12,4.64-1.79.78-3.5,1.74-5,2.98-.89.73.65,1.7,1.2,1.9,0,.01.01.02.02.03.51.26,1.51.45,1.84-.19.32-.63-.5-1.33-.98-1.56"/>
  <path d="M78.82,26.03c-1.11-.31-2.27,1.09-2.8,1.9-.71,1.08-.41,2.3.91,2.69,1,.3,2.03-.27,2.71-.99.53-.57,1.15-1.56.42-2.22-.04-.04-.25-.08-.17.04.49.8-.4,1.54-1.03,1.9-.35.2-.77.4-1.18.45-.13.01-.39.05-.49-.03.15.11.02-.04.04-.17.13-.83.79-1.5,1.34-2.08.34-.36,1.21-1.22.25-1.48"/>
  <path d="M80.4,28.02c1.08.16,2.16-.19,3.2-.45.54-.13,3.06-.9,2.94.15-.09.79-1.2,2.08.39,2.11,1.17.02,2.16-.86,3.18-1.28.34-.14.72-.32,1.09-.26.34.06.64.35.94.52.45.25.93.44,1.43.58,2.55.71,4.96.46,7.46-.29,2.96-.89,6.15-2.34,8.29-4.63.13-.15-.2-.33-.32-.24-2.42,1.84-4.98,3.14-7.93,3.91-1.35.35-2.75.63-4.14.78-1.45.15-2.93.35-4.28-.31-.76-.37-1.27-.99-2.16-.8-1.31.27-2.4,1.14-3.69,1.5-.27.07-.13.11-.02-.06.06-.1.1-.21.16-.3.15-.26.33-.52.43-.8.17-.51.07-.95-.38-1.28-.84-.63-2.17-.52-3.14-.37-1.29.19-2.52.62-3.82.76-.66.07.05.72.36.77"/>
  <path d="M140.95,30.94c1.7.17,3.44-1.22,4.84-2.02,1.7-.98,3.48-2.17,4.69-3.74.11-.14-.19-.3-.3-.21-1.48,1.31-2.94,2.48-4.69,3.43-1.45.78-3.03,2.11-4.72,2.17-.31.01.02.35.18.37"/>
  <path d="M155.77,18.33c.39-.41.73-.73,1.26-.91-.3-.35-.61-.71-.91-1.06-.8.58-1.42,1.54-2.04,2.34-.68.88-1.33,1.78-1.99,2.68-1.34,1.85-2.63,3.73-3.87,5.66-1.23,1.92-4.48,7.24-4.85,7.97-.23.48-.36.95,0,1.37.09.11.55.35.5,0-.09-.57,4.6-7.71,5.78-9.43,1.13-1.65,2.3-3.28,3.53-4.84.66-.83,1.34-1.64,2.04-2.44.66-.76,1.52-1.51,2.02-2.41.34-.63-1.04-1.45-1.24-.69-.13.52-.47.9-.76,1.31-.17.24.36.63.54.44"/>
  <path d="M155.57,24.72c-1.29-.39-2.38.48-3.29,1.31-1.19,1.08-2.54,2.17-4.24,2.17-.17,0-.02.21.08.22,1.33.12,2.85-.33,4.02-.97,1.29-.7,2.21-1.71,3.72-1.93.51-.08-.07-.73-.3-.8"/>
  <path d="M148.6,28.36c.17,1.41,3.15,1.77,4.22,1.78,2.75.02,5.75-.91,8-2.46.17-.12-.21-.32-.33-.27-2.24.96-4.53,1.65-6.96,1.87-1.26.11-3.17.08-4.08-.91-.13-.15-.9-.41-.85,0"/>
  <path d="M164.53,27.28c-.76-1.38-2.77-.55-3.76-.01-.72.4-2.9,1.52-2.24,2.64.71,1.19,2.43.36,3.41.01,1.28-.45,2.52-1,3.78-1.5-.21-.12-.41-.24-.62-.36.08.57,0,1,.59,1.31.56.3,1.29.2,1.9.13,2.04-.22,4.15-1.09,5.82-2.28.17-.12-.2-.3-.32-.26-.92.33-7.35,3.56-7.26,1.31.01-.24-.35-.42-.54-.38-.77.17-1.52.44-2.28.67-.56.17-1.13.34-1.7.49-.49.13-1.08.13-1.55.3-.03.01-.21,0-.23.02.08-.11.5.44.55.47.47.29-.11.18.15.08.03-.01.08-.12.12-.15.38-.29.71-.65,1.11-.92.44-.3.91-.56,1.41-.76.21-.09.49-.13.69-.24.26-.14.49.18-.04-.16.38.24,1.4.32,1-.4"/>
  <path d="M172.6,26.86c-.21,1.03,1.27,1.51,2.02,1.67.71.16,1.1.18,1.22,1.01.06.36.1.68.38.94.72.64,2.04.35,2.86.2,1.82-.34,3.61-.77,5.42-1.13,7.05-1.37,14.31-2.53,21.42-.98.24.06.17-.17,0-.23-5.91-2.08-12.64-.82-18.63.16-1.59.26-3.16.54-4.73.86-1.58.32-3.19.83-4.78,1.02-.21.03-.83.13-.99-.04-.17-.2.06-.76.06-1,0-.37-.13-.69-.39-.97-.32-.34-.8-.57-1.21-.75-.15-.06-.3-.11-.45-.17-.11-.03-.21-.07-.31-.11-.22-.12-.24-.11-.04.03.1-.76-1.66-1.4-1.85-.5"/>
  <path d="M143.56,25.13c-1.38-.04-2.32.87-2.57,2.21-.15.83.1,3.81-1.56,2.81-.11-.07-.51-.11-.35.14.77,1.22,2.1.75,2.67-.35.32-.63.44-1.31.69-1.96.38-.95.86-1.41,1.8-1.79.73-.29-.32-1.06-.7-1.07"/>
  <path d="M157.64,47.51c-.11.07-.21.14-.31.22-.73.54.18,1.56.63,1.54,1.7-.06,3.57-1.56,5.18-2.54,1.93-1.18,3.84-2.36,5.75-3.59,4.01-2.57,8.03-5.13,12.05-7.69,5.61-3.57,11.13-7.38,16.67-11.13,4.78-3.23,9.6-6.49,14.5-9.31.82-.47,1.65-.95,2.49-1.34.3-.13.6-.26.9-.36.1-.03.19-.06.29-.09.27-.07.37-.17.27.2-.2.82-1.01,1.95-1.43,2.71-.62,1.14-1.26,2.27-1.89,3.4-3.24,5.76-6.59,11.55-9.37,17.58-.18.38.47.94.69.55,2.99-5.42,6.24-10.67,9.2-16.11,1.14-2.08,2.33-4.16,3.32-6.31.49-1.06,1.01-2.66-.21-2.87-.57-.1-1.23.18-1.8.45-4.61,2.13-9.11,5.35-13.51,8.26-5.13,3.39-10.2,6.94-15.33,10.3-4.7,3.08-9.44,5.98-14.17,8.92-2.38,1.48-4.75,2.96-7.15,4.31-2.24,1.26-4.62,2.58-6.93,3.06.31.47.63.94.94,1.4.06-.05.1-.1.16-.15.72-.64-.31-1.82-.94-1.41"/>
  <path d="M209.7,30.84c1.34-.52,2.4-1.48,3.33-2.61.87-1.05,1.79-2.18,2.53-3.33.07-.12-.18-.25-.26-.18-.93.81-1.58,2.02-2.35,3-.96,1.22-2.04,2.31-3.47,2.86-.17.07.08.3.21.25"/>
  <path d="M214.1,24.51c.2.79,1.18,1.13,1.87,1.34.8.25,2.65.3,1.89,1.55-.34.57-2.33,2.12-1.04,2.73,1.02.47,2.69-.39,3.61-.76.71-.29,1.41-.59,2.11-.89,1.42-.62,3.37-1.75,4.95-1.65-.16-.16-.32-.32-.49-.48-.6,1.38-2.17,2.25-2.69,3.68-.15.39.56.67.83.48.71-.52,1.18-1.38,1.68-2.08.41-.57.83-1.08.98-1.78.07-.32-.55-.49-.75-.35-.56.38-1.39.49-2.02.72-.63.22-1.23.47-1.84.72-.8.33-1.6.66-2.4.98-.58.24-1.17.46-1.76.66-.36.12-1.59.67-1.95.43-.53-.37,1.79-2.36,1.52-3.23-.14-.46-.64-.77-1.03-1.01-.32-.2-.64-.39-.97-.57-.16-.09-.36-.22-.53-.29-.17-.08-.32-.38-.17-.03-.26-.63-2.06-1.21-1.79-.16"/>
  <path d="M225.12,30.56c1.2-.97,2.45-1.87,3.83-2.55.44-.21,1.1-.63,1.61-.62.57,0,.52.55.84.89,1.31,1.31,4.25.5,5.53-.42.14-.1-.17-.25-.25-.21-1.29.43-2.62.91-3.99.7-1.05-.16-.96-1.43-2.07-1.49-.83-.04-1.7.46-2.41.83-1.29.69-2.42,1.61-3.51,2.58-.18.16.27.43.43.3"/>
  <path d="M240.63,27c.21-.62-.38-1.01-.96-1.03-.73-.03-1.47.45-2.06.83-.78.49-3.2,2.61-1.03,2.9.8.1,1.71-.4,2.41-.73.4-.19,1.76-1.01,2.08-.8.26.18.35.54.7.69.81.34,1.73-.15,2.45-.47,1.62-.72,3.32-1.35,4.85-2.25.18-.11-.12-.29-.25-.25-1.99.71-3.87,1.74-5.87,2.4-.63.21-.85.07-1.31-.31-.15-.12-.21-.23-.4-.31-.57-.23-1.36.07-1.89.25-.73.25-1.45.57-2.21.76-.12.03-.4.03-.5.11-.26-.02-.26.04,0,.18.11.2.19.22.24.08.18-.09.56-.66.74-.82.3-.29.61-.53.96-.75.27-.18.56-.36.87-.5.1-.04.21-.08.31-.13.39-.19.15.07.11-.07.06.2.62.51.73.2"/>
  <path d="M249.83,24.95c.63.52.81.62.53.3-.05-.04-.1-.08-.15-.12-.15-.1-.32-.17-.5-.21-.3-.07-.64-.04-.92.08-.48.22-.69.71-.76,1.21-.13.96.19,2.29.78,3.07l.15-.32c-.57.07-1.1,0-1.65-.18-.08-.02-.17.02-.12.11.37.66,1.41.61,2.05.63.17,0,.31-.06.27-.25-.11-.63-.13-1.32-.03-1.95.06-.33.13-.71.32-.99.17-.25.4-.28.65-.44.49-.31-.39-.87-.62-.94"/>
  <path d="M247.97,29.17c2.35-.05,4.75-.95,6.8-2.06.15-.08-.1-.24-.21-.2-2.25.84-4.27,1.96-6.75,2.03-.19,0,.02.23.15.23"/>
  <path d="M255.3,26.59c-.63.36-1.29,1.04-1.55,1.73-.34.9.5,1.57,1.35,1.53.75-.04,3.46-1.48,2.06-2.28-.06-.04-.18-.01-.13.08.5.95-1.57,1.42-2.16,1.48-.04,0-.06-.06-.01.03.04.08.01-.08.03-.14.07-.24.19-.45.32-.67.26-.4.59-.75.92-1.09.35-.37-.5-.86-.81-.68"/>
  <path d="M256.93,27.55c1.01,2,5.13-.69,6.18-1.55.12-.1-.13-.24-.21-.22-.83.18-4.76,2.65-5.3,1.69-.16-.28-.89-.36-.67.08"/>
  <path d="M262.77,26.05c-.04-.18-.41.39-.53.53-.32.4-.66.8-.98,1.19-.5.63-1.12,1.27-1.48,1.99-.16.34.4.62.64.63.84.06,1.38-.43,2.01-.92.89-.69,1.97-1.32,3.12-1.43,1.19-.11,2.09.72,3.13,1.14.99.4,2.1.54,3.15.62,2.41.16,4.88-.07,7.27-.35,2.41-.29,4.98-.61,7.26-1.49.22-.08-.11-.31-.24-.29-2.41.42-4.77.94-7.21,1.19-2.57.27-5.24.59-7.82.35-1.26-.12-2.33-.39-3.44-1-.66-.36-1.32-.66-2.08-.66-.86,0-1.78.28-2.56.63-.45.2-.89.43-1.33.67-.44.24-1.01.79-1.51.76.21.21.43.43.64.63.44-.91,1.25-1.68,1.86-2.48.26-.33,1.18-1.24.87-1.71-.13-.21-.87-.45-.76,0"/>
  <path d="M82.68,19.81c-.55.33-1.04.9-1.45,1.41-.4.52-.89,1.05-1.2,1.62-.12.21.31.39.46.32.57-.27,1.06-.76,1.56-1.13.48-.34,1.08-.9,1.69-.93.51-.02.54-.52.29-.84-.24-.31-.94-.68-1.34-.44"/>
  <path d="M144.41,6.63c-.9.2-1.48.92-2.13,1.55-.71.67-1.5,1.29-2.11,2.06-.2.25.29.5.5.41.9-.41,1.71-1.04,2.56-1.55.76-.46,1.88-.75,2.39-1.47.36-.53-.83-1.07-1.2-.99"/>
  <path d="M134.64,16.51c-2.05-1.75-4.87-1-7.14-.08-3.22,1.31-6.2,3.09-9.01,5.13-5.2,3.77-10.25,8.23-13.89,13.58-1.89,2.77-5.76,11.15.08,12.11,2.23.37,4.76-.44,6.83-1.23,2.75-1.04,5.28-2.69,7.65-4.4,2.75-1.98,5.35-4.17,7.86-6.45,2.48-2.26,4.92-4.59,6.96-7.28,2.1-2.75,3.91-5.85,4.92-9.18.71-2.35,1.02-5.41-1.14-7.12-1.74-1.36-4.24-1.4-6.33-1.2-3.27.31-6.54,1.24-9.6,2.41-3.28,1.26-6.39,2.91-9.34,4.82-2.63,1.71-5.33,3.77-6.54,6.77-2.9,7.2,6.91,8.58,11.78,8.59,3.62,0,7.21-.62,10.7-1.54,3.62-.94,7.31-2.07,10.77-3.5,1.46-.6,2.81-1.36,4.04-2.34.17-.13-.24-.39-.39-.27-2.41,1.83-5.22,2.67-8.05,3.59-3.29,1.06-6.62,2.1-10.02,2.76-3.28.63-6.65.91-9.98.58-2.7-.27-7.28-.82-8.34-3.86-1.05-3.01,1.55-6.21,3.66-8.02,2.31-1.99,5.04-3.57,7.74-4.96,2.69-1.38,5.51-2.54,8.43-3.37,2.49-.71,5.2-1.34,7.81-1.18,7.97.49,3.59,9.98,1.06,13.93-3.15,4.92-7.66,8.93-12.12,12.65-3.93,3.27-8.24,6.64-13.18,8.2-1.7.53-5.66,1.88-6.64-.32-.91-2.02.1-4.82,1.03-6.67,2.81-5.55,7.63-10.1,12.4-13.97,2.48-2.01,5.08-3.91,7.87-5.46,1.47-.81,2.99-1.6,4.56-2.21,1.56-.6,3.66-1.27,5.2-.3.18.12.66.04.36-.21"/>
</svg>