<?xml version="1.0" encoding="UTF-8"?>
<svg id="Lager_1" xmlns="http://www.w3.org/2000/svg" version="1.1" viewBox="0 0 207.3 400">
  <!-- Generator: Adobe Illustrator 29.5.1, SVG Export Plug-In . SVG Version: 2.1.0 Build 141)  -->
  <g id="_x34_ujgTS">
    <path d="M103.46,389.38c-16.66,0-33.31,0-49.97,0-2.44,0-4.52-.9-6.44-2.37-16.71-12.72-28.74-28.91-36.02-48.62-2.89-7.83-4.78-15.9-5.76-24.18-.9-7.66-.74-15.35-.5-23.04.1-3.08.28-6.16.43-9.24.87-18.04,4.62-35.4,11.98-51.95,4.44-9.99,10.22-19.16,16.54-28.05,10.49-14.77,20.95-29.56,31.26-44.45,7.34-10.59,11.88-22.36,13.9-35.1.72-4.53,1.04-9.08,1.02-13.67-.02-7.4-.01-14.81,0-22.21,0-.89-.07-1.62-1.04-2.07-.83-.38-1.13-1.23-1.13-2.13,0-3.8-.03-7.6,0-11.4.01-1.59,1.01-2.5,2.61-2.53,2.83-.04,2.84-.04,2.78-2.9-.04-2.14-.11-4.28-.17-6.42-.03-1.11-.13-1.2-1.2-.89-6.67,1.92-13.34,3.86-20.01,5.79-3.21.93-6.43,1.84-9.63,2.79-.82.24-1.37.03-1.78-.7-.53-.95-.43-1.46.52-2.01,3.24-1.86,6.48-3.71,9.72-5.56,15.95-9.13,31.89-18.26,47.83-27.38,10.9-6.24,21.8-12.48,32.71-18.72,1.51-.86,1.77-.77,2.65.78,4.01,7.02,8.03,14.03,12.04,21.05,1.14,2,1.02,2.29-1.2,2.93-9.73,2.8-19.45,5.62-29.18,8.41-.78.22-1.08.61-1.09,1.45-.05,5.23-.14,10.45-.23,15.68-.03,1.56-.05,3.12-.15,4.67-.05.89.3,1.16,1.13,1.09.55-.05,1.1-.03,1.65,0,1.5.08,2.44.99,2.45,2.48.03,3.8.02,7.6,0,11.4,0,.93-.29,1.8-1.17,2.2-.89.4-1.01,1.04-1,1.88.02,4.51,0,9.03,0,13.54,0,3.8-.04,7.6.03,11.4.22,10.8,2.54,21.16,6.68,31.12,2.93,7.06,6.98,13.46,11.39,19.68,10.34,14.6,20.58,29.27,30.9,43.87,8.33,11.78,14.75,24.51,19.12,38.26,2.72,8.56,4.61,17.29,5.59,26.22.55,5,.87,10.01,1.18,15.03.3,4.83.39,9.66.45,14.5.2,15.66-2.77,30.71-9.14,45.05-5.5,12.4-13.1,23.36-22.76,32.88-3.5,3.44-7.24,6.61-11.17,9.55-1.78,1.33-3.79,1.93-6,1.93-10.23,0-20.46,0-30.68,0-6.4,0-12.79,0-19.19,0,0,0,0,0,0,0Z"/>
  </g>
</svg>